<svg id="Layer_1" xmlns="http://www.w3.org/2000/svg" viewBox="0 0 1000 400"><style>.st0{opacity:.4;fill:#00a6fb;enable-background:new}.st1{fill:none;stroke:#82d8f9;stroke-width:2;stroke-linecap:round;stroke-miterlimit:10}.st2{fill:#82d8f9}.st3{fill:none;stroke:#82d8f9;stroke-width:3;stroke-linecap:round;stroke-miterlimit:10}.st4{fill:#008cdb}.st5{fill:#fff}.st6{opacity:.4}.st7,.st8{fill:none;stroke:#00a6fb;stroke-miterlimit:10}.st8{stroke:#b4e5f9;stroke-width:2}.st9{fill:#00a6fb}.st10{fill:#2ab6f4}.st11{enable-background:new}.st12{fill:none;stroke:#fff;stroke-width:2;stroke-miterlimit:10}.st13,.st14,.st15{opacity:.5;fill:#e0f4fc;enable-background:new}.st14,.st15{fill:#82d8f9}.st15{fill:#b4e5f9}.st16{fill:#e0f4fc}.st17{fill:#b4e5f9}.st18{fill:none;stroke:#2ab6f4;stroke-width:.5;stroke-miterlimit:10}</style><g id="Content"><circle class="st0" cx="270.1" cy="204" r="113.3"/><path class="st1" d="M189.5 124.2c20.5-20.7 49-33.5 80.4-33.5 62.5 0 113.3 50.7 113.3 113.3 0 26.9-9.3 51.5-25 71"/><path class="st2" d="M353.1 267.1l-3.4 17.3 16.7-5.6z"/><path class="st3" d="M345 288.7c-20 17.7-46.3 28.5-75.1 28.5-62.5 0-113.3-50.7-113.3-113.3 0-22 6.3-42.5 17.2-60"/><path class="st2" d="M182.4 155l2.7-26.1-24 10.6z"/><circle class="st0" cx="724.2" cy="204" r="113.3"/><path class="st1" d="M796.3 116.6c-19.2-15.9-43.8-25.5-70.6-25.9-62.6-.7-113.9 49.3-114.8 111.8-.4 31.4 12.1 60 32.4 80.8"/><path class="st2" d="M800.2 108.5l5.4 16.8-17.2-3.7z"/><path class="st3" d="M663 299.4c17.3 11.1 37.7 17.6 59.7 18 62.5.8 113.9-49.2 114.8-111.8.4-28.3-9.7-54.3-26.6-74.3"/><path class="st2" d="M658.4 312L648 287.8l26.2 3.1z"/><path class="st4" d="M813.5 293.7c-10.9 0-19.7-8.9-19.7-19.7s8.9-19.7 19.7-19.7 19.7 8.9 19.7 19.7-8.8 19.7-19.7 19.7z"/><path class="st2" d="M813.5 254.9c10.5 0 19 8.5 19 19s-8.5 19-19 19-19-8.5-19-19 8.5-19 19-19m0-1.4c-11.3 0-20.4 9.2-20.4 20.4s9.2 20.4 20.4 20.4 20.4-9.2 20.4-20.4-9.1-20.4-20.4-20.4z"/><path class="st5" d="M815.7 263.8c0-1.2-1-2.3-2.3-2.3-1.2 0-2.3 1-2.3 2.3h-1.6v3.7h7.8v-3.7h-1.6zm-2.2 1c-.5 0-1-.4-1-1s.4-1 1-1 1 .4 1 1-.5 1-1 1z"/><path class="st5" d="M821.1 263.8h-2.4v1.7h1.8V284h-14.1v-18.5h1.8v-1.7h-2.4c-.7 0-1.2.5-1.2 1.2v19.5c0 .7.5 1.2 1.2 1.2H821c.7 0 1.2-.5 1.2-1.2V265c0-.7-.5-1.2-1.1-1.2z"/><path class="st5" d="M809.5 280.7l-2-2 1-1 1.1 1.1 2.5-2.5 1 1-3.6 3.4zM812.4 274l-1.5-1.6 1.5-1.5-.8-.8-1.5 1.6-1.5-1.6-.8.8 1.5 1.5-1.5 1.6.8.7 1.5-1.5 1.5 1.5zM818.8 273h-5.1c-.1 0-.2-.1-.2-.2v-.8c0-.1.1-.2.2-.2h5.1c.1 0 .2.1.2.2v.8c-.1.2-.1.2-.2.2zM818.8 279.7h-5.1c-.1 0-.2-.1-.2-.2v-.8c0-.1.1-.2.2-.2h5.1c.1 0 .2.1.2.2v.8c-.1.1-.1.2-.2.2z"/><path class="st4" d="M724.2 337.1c-10.9 0-19.7-8.9-19.7-19.7s8.9-19.7 19.7-19.7c10.9 0 19.7 8.9 19.7 19.7s-8.8 19.7-19.7 19.7z"/><path class="st2" d="M724.2 298.2c10.5 0 19 8.5 19 19s-8.5 19-19 19-19-8.5-19-19c0-10.4 8.5-19 19-19m0-1.4c-11.3 0-20.4 9.2-20.4 20.4 0 11.3 9.2 20.4 20.4 20.4s20.4-9.2 20.4-20.4-9.1-20.4-20.4-20.4z"/><path class="st5" d="M715.2 321.3l2.1 1.1v2.9l6.6 3.4v-7.6l-6.6-3zM733.1 321.4l-2.1-3.3-6.6 3v7.6l6.6-3.4v-2.9zM718.2 314.3l-3.1 1.4 2.2 2.1 3-1.4zM723.1 313.6l-1.1-1.1-1.7.8 2 2.1.8-.3zM728.1 313.4l-1.8-.9-1.1 1.1v1.5l.7.4zM728.1 316.4l2.9 1.4 2.1-2.1-3-1.4z"/><path class="st5" d="M733.5 309.4h-4.8v1.1h3l-7 6.9v-11.3l2.1 2.2.8-.8-3.4-3.5-3.5 3.5.8.8 2.2-2.2v11.3l-7-6.8h3.1v-1.1h-4.9v4.9h1.1v-3.1l8.2 8.2 8.3-8.2v3h1z"/><path class="st4" d="M822.2 165.7c-10.9 0-19.7-8.9-19.7-19.7s8.9-19.7 19.7-19.7 19.7 8.9 19.7 19.7-8.8 19.7-19.7 19.7z"/><path class="st2" d="M822.2 126.9c10.5 0 19 8.5 19 19s-8.5 19-19 19-19-8.5-19-19 8.5-19 19-19m0-1.4c-11.3 0-20.4 9.2-20.4 20.4 0 11.3 9.2 20.4 20.4 20.4s20.4-9.2 20.4-20.4-9.1-20.4-20.4-20.4z"/><path class="st5" d="M818.4 132.1c-2.4 0-4.8.9-6.5 2.7-3.6 3.6-3.6 9.5 0 13.1 1.8 1.8 4.1 2.7 6.5 2.7s4.8-.9 6.5-2.7c3.6-3.6 3.6-9.5 0-13.1-1.7-1.8-4.1-2.7-6.5-2.7zm-7.9 9.3c0-4.4 3.5-7.9 7.9-7.9s7.9 3.5 7.9 7.9-3.5 7.9-7.9 7.9-7.9-3.5-7.9-7.9zM835.1 155.9c.2.2.2.5 0 .7l-1.4 1.4c-.2.2-.5.2-.7 0l-7.3-7.3c-.2-.2-.2-.5 0-.7l1.4-1.4c.2-.2.5-.2.7 0l7.3 7.3zM815 134.9z"/><path class="st5" d="M815.5 134.6c-.2.1-.3.2-.4.2h-.1c-.1.1-.3.2-.4.2h.2c.4.1.6 0 .7-.4zM817.2 135v-1-.1c-.1 0-.2 0-.3.1v.9l.3.1zM816.2 135v-.7c-.1 0-.2.1-.3.1v.6h.3zM818.1 135.5h.2s-.4-.4-.4-1.3v-.2h-.3v.2c0 .8.5 1.3.5 1.3zM818.6 135.5h.2s.4-.5.4-1.3v-.2h-.3v.2c.1.8-.3 1.3-.3 1.3zM820 134.8h-.3l-.1.7h.2zM811.7 138.3c0 .1-.1.2-.1.2h.1v-.2zM812.1 138.4c.1.1.2.2.4.2.3 0 .4-.1.4-.3l.1.3h.2V137h-.2v1c0 .2 0 .4-.4.4-.2 0-.3-.1-.3-.2-.1-.1-.1-.2-.1-.4v-.6c-.1.2-.2.3-.3.4v.2c.1.3.1.4.2.6zM813.7 136.3h.3v2.3h-.3zM814.6 138c0 .2 0 .3.1.4.1.1.2.2.4.2h.3v-.3h-.2c-.1 0-.2 0-.2-.1v-1.1h.4v-.1h-.4v-.5l-.3.1v.4h-.3v.2h.3v.8h-.1zM816.4 139s-.4-.4-.4-1.3.4-1.3.4-1.3h-.2s-.4.5-.4 1.3c0 .9.4 1.3.4 1.3h.2zM816.9 139s.4-.5.4-1.3-.4-1.3-.4-1.3h-.2s.4.4.4 1.3-.4 1.3-.4 1.3h.2zM818 137.3c.1 0 .2-.1.2-.2s-.1-.2-.2-.2-.2.1-.2.2 0 .2.2.2zM818.1 138.2h-.3l-.1.8h.2zM811.7 139.7s-.4.5-.4 1.3c0 .9.4 1.3.4 1.3h.2s-.4-.4-.4-1.3.4-1.3.4-1.3h-.2zM812.7 139.7h-.3v.8h.2zM813.2 140.9c0-.1.1-.2.3-.2s.4.1.4.1v-.3s-.2-.1-.4-.1c-.4 0-.5.2-.5.4 0 .5.7.4.7.8 0 .1-.1.2-.3.2s-.4-.1-.4-.1v.3s.2.1.4.1c.4 0 .6-.2.6-.4-.1-.7-.8-.6-.8-.8zM815.3 141.7s-.2.1-.4.1c-.3 0-.4-.3-.4-.6s.2-.6.4-.6.4.1.4.1v-.3s-.2-.1-.4-.1c-.5 0-.8.3-.8.8s.3.8.8.8c.3 0 .4-.1.4-.2zM815.9 140.8l-.1-.3h-.2v1.6h.3v-.9c0-.2 0-.4.4-.4h.2v-.4h-.1c-.2 0-.4.1-.5.4zM817.4 142.1c.4 0 .7-.3.7-.8s-.3-.8-.7-.8c-.4 0-.7.3-.7.8 0 .4.2.8.7.8zm0-1.5c.3 0 .4.2.4.6 0 .4-.2.6-.4.6-.3 0-.4-.2-.4-.6 0-.3.1-.6.4-.6zM818.6 139.7h.3v2.3h-.3zM819.4 139.7h.3v2.3h-.3zM820.3 142c.1 0 .2-.1.2-.2s-.1-.2-.2-.2-.2.1-.2.2.1.2.2.2zM823.1 142v-1c0-.2 0-.4-.1-.4-.1-.1-.2-.2-.4-.2s-.4.1-.4.4c-.1-.2-.2-.4-.4-.4-.3 0-.4.2-.4.3l-.1-.3h-.3v1.6h.3v-1c0-.2 0-.4.4-.4.2 0 .3.1.3.2.1.1.1.2.1.4v1h.3v-1c0-.2 0-.4.4-.4.2 0 .3.1.3.2.1.1.1.2.1.4v1h.2l-.3-.4zM823.6 140.4h.3v1.6h-.3zM823.7 140.2c.1 0 .2-.1.2-.2s-.1-.2-.2-.2-.2.1-.2.2.1.2.2.2zM825 142c.2 0 .4-.1.4-.1v-.3s-.2.1-.4.1c-.3 0-.4-.3-.4-.6s.2-.6.4-.6.4.1.4.1v-.3s-.2-.1-.4-.1c-.5 0-.8.3-.8.8 0 .7.4 1 .8 1zM825.8 142h.2c0-.5 0-1.1-.1-1.6h-.2l.1 1.6zM812.2 143.2h-.2s-.4.4-.4 1.1l.3.6v-.3c-.1-.9.3-1.4.3-1.4zM813.3 144.4l.1-.6c.3 0 .4.1.4.1v-.3s-.2-.1-.4-.1v-.3h-.2v.3c-.4 0-.6.2-.6.4 0 .4.3.4.5.5l-.1.6c-.3 0-.4-.1-.4-.1v.3s.2.1.4.1v.3h.2v-.3c.4 0 .6-.2.6-.5 0-.2-.2-.3-.5-.4zm-.2-.1c-.2-.1-.4-.2-.4-.4s.1-.3.4-.3v.7zm.1 1l.1-.6c.2.1.4.2.4.4 0 0-.2.2-.5.2zM814.5 145.2c-.1 0-.2.1-.2.2s.1.2.2.2.2-.1.2-.2-.2-.2-.2-.2zM815.8 143.9c-.3 0-.4.1-.4.4l-.1-.3h-.2v2.1h.3v-.8c.1.2.2.3.4.3.4 0 .7-.4.7-.8 0-.6-.3-.9-.7-.9zm-.1 1.4c-.3 0-.4-.3-.4-.6 0-.4.1-.6.4-.6.3 0 .4.3.4.6 0 .4-.1.6-.4.6zM817.1 144.2l-.1-.3h-.2v1.6h.3v-.9c0-.2 0-.4.4-.4h.2v-.3h-.1c-.2 0-.4 0-.5.3zM818.6 143.9c-.4 0-.7.3-.7.8s.3.8.7.8c.4 0 .7-.3.7-.8s-.3-.8-.7-.8zm0 1.4c-.3 0-.4-.2-.4-.6 0-.4.2-.6.4-.6.3 0 .4.2.4.6 0 .4-.1.6-.4.6zM820.9 143.9h-.3l-.3.6-.5-.6h-.3l.5.8-.5.8h.2l.5-.7.4.7h.3l-.5-.9zM821.9 145.1l-.4-1.2h-.4l.6 1.5c-.1.3-.2.4-.4.4h-.2v.3h.2c.4 0 .5-.3.6-.6l.6-1.6h-.3l-.3 1.2zM823.3 143.2s-.4.5-.4 1.3c0 .9.4 1.3.4 1.3h.2s-.4-.4-.4-1.3.4-1.3.4-1.3h-.2zM824.3 143.4l-.3.1v.4h-.3v.2h.3v.8c0 .2 0 .3.1.4.1.1.2.2.4.2h.3v-.3h-.2c-.1 0-.2 0-.2-.1V144h.4v-.2h-.4v-.5h-.1zM825.5 144.2v-1h-.3v1.7c.2-.3.3-.6.4-.9-.1 0-.1.1-.1.2z"/><g><path class="st4" d="M723.9 112c-10.9 0-19.7-8.9-19.7-19.7s8.9-19.7 19.7-19.7 19.7 8.9 19.7 19.7-8.9 19.7-19.7 19.7z"/><path class="st2" d="M723.9 73.1c10.5 0 19 8.5 19 19s-8.5 19-19 19-19-8.5-19-19 8.5-19 19-19m0-1.3c-11.3 0-20.4 9.2-20.4 20.4s9.2 20.4 20.4 20.4 20.4-9.2 20.4-20.4c0-11.3-9.1-20.4-20.4-20.4z"/><g><path class="st5" d="M722.7 89.2c-.7-.2-1.7-.3-3.3.3-1.4.4-2.9.5-2.8-.3.2-1 1.8-.8 2.6-.8 1.5.2 3 .2 3.6-.4.5-.4.6-2.6.4-3.8-.4-1.8-4-1.2-5.5-.4-.9.4-.9 0-.4-.4.7-.6 2.9-1.4 4.8-1 1.4.4 1.2-.4 1.2-.9 0-.3-.1-.5-.2-.7-.4-.9-3.5-1.1-6.6 1-3.1 2-3.2 4.8-1.6 4.8.9 0 2.6-1.1 3.7-1.2.5-.1 1.6 0 1.2.9-.3.7-1.8.5-3.3.7-2.5.3-2.9 1.7-2.9 2-.2.8.5 1.9 1.6 2.2 1.1.4 2.1-.3 3.3-.2 1.1.1 1.5.5 1.5.7 0 .4-.4.5-.8.5-.8 0-2-.4-2.9-.4-.2 0-.4.3-.4.5 0 .6.7 1.7 2.6 2 2.3.4 2.4 1.8 2.4 2v.9h1.9c0-1.5 0-1.8.4-2.6.4-1.1.2-1.7-.9-1.5-1 .3-2 .8-2.3.4-.2-.3.1-.4.7-.5 1.1-.2 2.1-.8 2.5-1.9.2-.4.4-1.6-.5-1.9zM725.1 89.2c.7-.2 1.7-.3 3.3.3 1.4.4 2.9.5 2.8-.3-.2-1-1.8-.8-2.6-.8-1.5.2-3 .2-3.6-.4-.5-.4-.6-2.6-.4-3.8.4-1.8 4-1.2 5.5-.4.9.4.9 0 .4-.4-.7-.6-2.9-1.4-4.8-1-1.4.4-1.2-.4-1.2-.9 0-.3.1-.5.2-.7.4-.9 3.5-1.1 6.6 1 3.1 2 3.2 4.8 1.6 4.8-.9 0-2.6-1.1-3.7-1.2-.5-.1-1.6 0-1.2.9.3.7 1.8.5 3.3.7 2.5.3 2.9 1.7 2.9 2 .2.8-.5 1.9-1.6 2.2-1.1.4-2.1-.3-3.3-.2-1.1.1-1.5.5-1.5.7 0 .4.4.5.8.5.8 0 2-.4 2.9-.4.2 0 .4.3.4.5 0 .6-.7 1.7-2.6 2-2.3.4-2.4 1.8-2.4 2v.9H725c0-1.5 0-1.8-.4-2.6-.4-1.1-.2-1.7.9-1.5 1 .3 2 .8 2.3.4.2-.3-.1-.4-.7-.5-1.1-.2-2.1-.8-2.5-1.9-.2-.4-.3-1.6.5-1.9zM725.8 102.9c0 .8-.8 1.4-1.8 1.4s-1.8-.6-1.8-1.4h3.6zM727.2 100h-6.6c-.2 0-.4-.2-.4-.4v-.9c0-.2.2-.4.4-.4h6.6c.2 0 .4.2.4.4v.9c-.1.2-.2.4-.4.4zM726.8 102.3H721c-.3 0-.5-.2-.5-.5l-.1-.7c0-.2.1-.4.4-.4h6.5c.2 0 .4.2.4.4l-.1.7c-.2.2-.5.5-.8.5z"/></g></g><g class="st6"><path class="st7" d="M455.8 280.5l22.8-36.5M518.9 159.9l40.3-46.7M500.9 127.6l3.2-21.3M403.4 197.6l-24.2-60.5M408.4 144.9l-44.1 30.3M403.4 197.6l-39.1-22.4M596.4 178.6l-63.2 7.2M405.2 197.7l3.2-52.8M408.4 144.9l29.3-16M408.4 144.9l-29.2-7.8M437.7 128.9l64.4-2.3M437.7 128.9l39.8 31M417.4 234.3l30.7 4.3M448.1 238.6l30.5 5.4M417.4 234.3l-4 46.6M362.8 219.4l50.6 61.5M362.8 219.4l168.4 48.5M528.8 306.4l-73-25.9M413.4 280.9l29.1 47.6M455.8 280.5l-13.3 48M442.5 328.5l88.7-60.6M526.9 304.4l-31.3 35.2M495.6 339.6l-78.2-105.3M518.7 243.6l35.2-3.9M518.7 243.6l12.5 24.3M591.4 283.5L529.3 304M529.3 304l46.7 10.7M591.4 283.5l-37.5-43.8M531.2 267.9l22.7-28.2M533.2 185.8l32.9 13.9M553.4 119.5l43 59.1M632.7 211.5l-25.2 41.7M448.6 168.8l15.3 17M566.1 199.7l-12.2 40.7M607.8 250.3l-16.4 33.2M502.1 126.6l51.3-7.1M477.5 159.9l24.6-33.3M408.4 144.9l40.2 23.9M542.8 155.7l-40.7-29.1M389.4 186.9l28 47.4M607.5 252l-53.6-11.6M629.2 172.8l-75.8-53.3M566.1 199.7l66.6 11.8M542.8 154.9l53.6 23.7M629.2 172.8l-32.8 5.8M632.7 211.5l-36.3-32.9M607.8 250.3l-11.4-71.7M531.2 267.9l-1.9 36.1M463.9 185.8l-46.5 48.5M448.1 238.6l-39.7-93.7M654.5 185.9l-25.3-13.1M632.7 211.5l24.4 49.6M607.8 250.3l49.3 10.8M632.7 211.5l21.8-25.6M629.2 172.8l32.1-13.5M313 253.1l49.8-33.7M364.3 175.2l-26.4 16.2M362.8 219.4L351.1 259M379.2 137.1l-37 3.9M364.3 175.2L342.2 141M362.8 219.4l-24.9-28M405.2 197.7l-42.4 21.7M660.4 128.4l-64 50.2M661.5 158.1l-1.1-29.7M291.9 227.9l21.1 25.2M307.7 285.9l43.4-26.9M666.8 225.2l-34.1-13.7M654.5 185.9l12.3 39.3"/></g><circle class="st8" cx="497.2" cy="204" r="135.6"/><g><path class="st5" d="M571.3 127.9c-10.2 0-18.4-7-18.4-15.5 0-5.8 3.9-11.2 10-13.7.6-7.4 6.9-13.2 14.4-13.2 1.8 0 3.4.3 5 .9 2.6-6.4 8.9-10.7 15.9-10.7 9.6 0 17.3 7.8 17.3 17.3v1.1c6.6 3.3 10.7 9.2 10.7 15.6 0 10-9.7 18.1-21.6 18.1l-33.3.1z"/><path class="st4" d="M598.2 77c8.8 0 16 7.1 16 16 0 .7 0 1.3-.1 2 6.3 2.8 10.7 8.4 10.7 14.8 0 9.2-9.1 16.7-20.3 16.7h-33.3c-9.4 0-17.1-6.3-17.1-14.2 0-5.7 4.1-10.7 10-12.9.1-7.1 5.9-12.9 13-12.9 2.1 0 4.1.5 5.8 1.3 2.2-6.1 8.2-10.8 15.3-10.8m0-2.6c-7.1 0-13.6 4.1-16.7 10.3-1.4-.4-2.8-.6-4.3-.6-7.9 0-14.5 6-15.6 13.7-6.3 2.9-10.1 8.5-10.1 14.7 0 9.2 8.9 16.8 19.7 16.8h33.3c12.7 0 22.9-8.7 22.9-19.4 0-6.7-4.1-12.9-10.6-16.4v-.4c.1-10.4-8.3-18.7-18.6-18.7z"/></g><g><path class="st5" d="M606.9 139.2c-4.4 0-8-3.1-8-6.9 0-2.5 1.6-4.8 4-5.9.4-3.1 3.2-5.5 6.3-5.5.5 0 1.1.1 1.6.2 1.3-2.5 3.9-4 6.7-4 4.1 0 7.6 3.4 7.6 7.6 2.6 1.4 4.1 3.9 4.1 6.6 0 4.3-4.1 7.8-9.2 7.8h-13.1z"/><path class="st4" d="M617.4 118.4c3.4 0 6.3 2.8 6.3 6.3 0 .3 0 .5-.1.8 2.5 1.1 4.2 3.3 4.2 5.8 0 3.6-3.5 6.5-7.9 6.5h-13c-3.7 0-6.7-2.5-6.7-5.5 0-2.2 1.6-4.1 3.9-5 .1-2.8 2.3-5 5.1-5 .8 0 1.6.2 2.3.5.7-2.6 3.1-4.4 5.9-4.4m0-2.6c-3 0-5.7 1.5-7.3 3.9-.3 0-.6-.1-.9-.1-3.6 0-6.7 2.6-7.5 5.9-2.6 1.5-4.1 4.1-4.1 6.8 0 4.5 4.2 8.2 9.3 8.2h13c5.8 0 10.6-4.1 10.6-9.2 0-2.9-1.6-5.6-4.2-7.3-.4-4.6-4.3-8.2-8.9-8.2z"/></g><g><path class="st5" d="M488.7 204.1v19.4h19.4v-19.4h-19.4zm17.8 17.8h-16.1v-16.1h16.1v16.1z"/><path class="st5" d="M493.4 212.5c0 .5 0 1.3.1 2.3.1 1.6.3 2.9.3 2.9l2.6-2.5s-.1-1.2.1-3.1c-.2.1-3-.3-3.1.4zM499.3 218.8c.7-.2.4-3 .4-3-1.8.1-3.1-.1-3.1-.1l-2.6 2.5s1.4.3 2.9.4c1 .1 2.2.2 2.4.2z"/><path class="st5" d="M493.4 212.4v.2c0-.1.1-.2.2-.4.2-.3.5-.4.7-.4.7-.1 1.8-.2 2.8-.3 1.8-.1 3.1.1 3.1.1l2.6-2.5s-1.3-.3-2.9-.4c-1-.1-1.9-.2-2.4-.2 0 0-.4-.1-.7.3-.4.4-2.2 2.1-3 2.8-.4.4-.4.8-.4.8zM499.4 218.8h-.2c.1 0 .2-.1.4-.2.3-.2.4-.5.4-.7.1-.7.3-1.8.4-2.7.2-1.8.1-3.1.1-3.1l2.6-2.5s.2 1.4.3 2.9c.1 1.1.1 1.9.1 2.4 0 0 0 .4-.4.7s-2.2 2.1-3 2.8c-.2.5-.6.4-.7.4zM490.4 203.2h1v1.8h-1zM493.4 203.2h1v1.8h-1zM496.3 203.2h1v1.8h-1zM499.4 203.2h1v1.8h-1zM502.4 203.2h1v1.8h-1zM505.4 203.2h1v1.8h-1z"/><g><path class="st5" d="M490.4 222.7h1v1.8h-1zM493.4 222.7h1v1.8h-1zM496.3 222.7h1v1.8h-1zM499.4 222.7h1v1.8h-1zM502.4 222.7h1v1.8h-1zM505.4 222.7h1v1.8h-1z"/></g><g><path class="st5" d="M487.8 220.8h1.8v1h-1.8zM487.8 217.8h1.8v1h-1.8zM487.8 214.8h1.8v1h-1.8zM487.8 211.8h1.8v1h-1.8zM487.8 208.8h1.8v1h-1.8zM487.8 205.8h1.8v1h-1.8z"/></g><g><path class="st5" d="M507.2 220.8h1.8v1h-1.8zM507.2 217.8h1.8v1h-1.8zM507.2 214.8h1.8v1h-1.8zM507.2 211.8h1.8v1h-1.8zM507.2 208.8h1.8v1h-1.8zM507.2 205.8h1.8v1h-1.8z"/></g><g><path class="st5" d="M511.1 206.5v-1h2.1l10.7-10.7-2.5-2.3 7.9-8-10.2-10.2-4.7 4.6-2.8-2.8v-5.9l-3.5-3.5 4.1-4 15.2 15.3v-3.7l-6.8-6.8 2.7-2.7-4.8-4.8.7-.7 5.5 5.5-2.7 2.7 6.5 6.5v6.4l-16.3-16.3-2.6 2.6 3 3v5.9l1.8 2 4.7-4.7 11.6 11.6-7.9 7.9 2.5 2.4-11.8 11.7z"/><path class="st5" d="M504.3 201.5v-2h6.2l3.4-3.3-5-4.9h-6.5v-8h3.4l7.6 7.6 4.2-4.2-8.4-8.4h-7.9v-9.6l6.1-6.2-1.7-1.7-5.5 5.5v-7.2l3.5-3.4h5.4l8.8 8.8 1.2-1.3.7.7-1.9 2-9.2-9.3h-4.6l-2.9 2.9v4.4l4.5-4.5 3.1 3.1-6.6 6.6v8.2h7.4l9.4 9.4-5.6 5.6-8.1-8h-1.9v6.1l6-.1 5.9 5.9-4.3 4.3h-5.8v1zM511.1 208.8v-1h3.9l8.2-8.2 6.7.1 4.8-4.8-2.2-2.2-3.3 3.3-3.6-3.6 6.9-7 .7.7-6.3 6.3 2.3 2.2 3.3-3.3 3.6 3.6-5.8 5.8-6.7-.1-8.1 8.2z"/><path class="st5" d="M517 213.9h-5.9v-1.1h6.5l4 3.9 5.6-5.7-4.8-4.7 3.1-3.1h6.4v1h-6l-2.1 2.1 4.8 4.7-7 7z"/><path class="st5" d="M522 232.1l-5.7-5.8 4.9-4.9-5.5-5.2h-4.6v-.9h5.1l6.3 6.1-4.8 4.9 4.7 4.7 2.7.1-4.7-4.6 4.8-4.8-2.3-2.5 7.2-7.2.7.7-6.5 6.5 2.3 2.5-4.8 4.8 5.6 5.6z"/><path class="st5" d="M520.7 234.6l-8.8-8.7 4.6-4.5-3.1-2.9h-2.3v-.9h2.8l3.9 3.8-4.5 4.5 7.7 7.7h7.6l1.3-1.3-6-5.9 3.4-3.4v-4.8l6-6v-9.8l3.6-3.5v19.7l-7.8 7.9 1.2.9 1.5-1.6.7.7-2.2 2.3-2.6-2.3 8.2-8.2v-17l-1.6 1.5v9.7l-6 6.1v4.9l-3 2.9 5.9 5.9-2.3 2.3z"/><path class="st5" d="M519.8 237.6l-5.5-5.6-1.7 1.8-6.3-6.4 5.6-5.6-.3-.4h-.5v-.9h.8l1.4 1.3-5.6 5.6 4.9 5 1.7-1.7 5.9 5.9h5v1zM506.5 245.6l5-5-2.4-2.4-2.7 2.8-5-6v-8.8h.9v8.4l4.1 5 2.7-2.8 3.8 3.8-5.1 5 4 4 6.4-6.3.7.7-7.1 7z"/><path class="st5" d="M514.2 234.9l-1.6 1.5-5.7-5.7-1.8 1.6v-6.1H504v8.4l2.8-2.5 5.8 5.7 1.5-1.5 3 3.1-6.3 6.3.8.8 7.1-7.1zM519.2 209.6l-1.7 1.7h-6.4v-1h5.9l2.3-2.2 3.9 3.7-.7.7zM501.4 201.5V197h7.3l1.1-1.1-1.1-1.1H500v-14.4h7.8l5.5 5.5-.7.7-5.2-5.2h-6.5v12.4h8.1l2.2 2.1-2.2 2.2h-6.6v3.4zM511.1 203.7v-.9h1l7.2-7.3-3.2-3.1 6.9-7.1-5.4-5.4.7-.7 6.1 6.1-7 7.1 3.3 3.1-8.2 8.2zM507.6 169.4h-3.4v6.2h5.4v-4.4zM526.4 206.6l.6-.7 3.4-.1 1.4 1.3-2.4 2.5zM513.9 174.5l-.1-3.4 1.3-1.4 2.6 2.4-3.1 3.1zM529.8 219.2l4.4-4.4v3l-4.4 4.4z"/></g><g><path class="st5" d="M485.7 206.5v-1h-2.1l-10.8-10.7 2.6-2.3-7.9-8 10.2-10.2 4.6 4.6 2.9-2.8v-5.9l3.4-3.5-4.1-4-15.3 15.3v-3.7l6.9-6.8-2.7-2.7 4.9-4.8-.7-.7-5.6 5.5 2.8 2.7-6.5 6.5v6.4l16.2-16.3 2.7 2.6-3 3v5.9l-1.9 2-4.6-4.7-11.6 11.6 7.9 7.9-2.6 2.4 11.7 11.7z"/><path class="st5" d="M492.5 201.5v-2h-6.3l-3.3-3.3 4.9-4.9h6.5v-8H491l-7.7 7.6-4.1-4.2 8.3-8.4h8v-9.6l-6.2-6.2 1.8-1.7 5.4 5.5v-7.2l-3.5-3.4h-5.4l-8.8 8.8-1.1-1.3-.7.7 1.8 2 9.3-9.3h4.5l2.9 2.9v4.4l-4.4-4.5-3.1 3.1 6.5 6.6v8.2h-7.4l-9.3 9.4 5.5 5.6 8-8h2v6.1l-5.9-.1-5.9 5.9 4.3 4.3h5.6v1zM485.7 208.8v-1h-4l-8.2-8.2-6.7.1-4.7-4.8 2.2-2.2 3.2 3.3 3.7-3.6-7-7-.7.7 6.3 6.3-2.3 2.2-3.2-3.3-3.6 3.6 5.7 5.8 6.7-.1 8.2 8.2z"/><path class="st5" d="M479.6 213.9h6.1v-1.1h-6.5l-4.1 3.9-5.6-5.7 4.8-4.7-3.1-3.1h-6.4v1h6l2.1 2.1-4.7 4.7 6.9 7z"/><path class="st5" d="M474.7 232.1l5.8-5.8-4.9-4.9 5.4-5.2h4.7v-.9h-5.1l-6.4 6.1 4.9 4.9-4.8 4.7-2.6.1 4.7-4.6-5-4.8 2.5-2.5-7.2-7.2-.7.7 6.5 6.5-2.5 2.5 4.9 4.8-5.6 5.6z"/><path class="st5" d="M476.1 234.6l8.7-8.7-4.6-4.5 3-2.9h2.5v-.9h-2.8l-4.1 3.8 4.6 4.5-7.7 7.7h-7.5l-1.4-1.3 5.9-5.9-3.3-3.4v-4.8l-6-6v-9.8l-3.5-3.5v19.7l8.4 8.5.7-.6-8.1-8.2v-17l1.5 1.5v9.7l6 6.1v4.9l3 2.9-6 5.9 2.4 2.3z"/><path class="st5" d="M476.9 237.6l5.5-5.6 1.8 1.8 6.2-6.4-5.6-5.6.4-.4h.5v-.9h-.9l-1.4 1.3 5.6 5.6-4.8 5-1.8-1.7-5.9 5.9h-5v1zM490.3 245.6l-5-5 2.3-2.4 2.8 2.8 5-6v-8.8h-1.1v8.4l-3.9 5-2.8-2.8-3.8 3.8 5.1 5-4 4-6.3-6.3-.7.7 7 7z"/><path class="st5" d="M482.5 234.9l1.6 1.5 5.7-5.7 1.9 1.6v-6.1h.9v8.4l-2.8-2.5-5.7 5.7-1.5-1.5-3.1 3.1 6.4 6.3-.7.8-7.2-7.1zM477.4 209.6l1.9 1.7h6.4v-1h-6l-2.3-2.2-3.9 3.7.7.7zM495.3 201.5V197h-7.2l-1.2-1.1 1.2-1.1h8.7v-14.4h-7.9l-5.5 5.5.7.7 5.2-5.2h6.5v12.4h-8.1l-2.2 2.1 2.2 2.2h6.6v3.4zM485.7 203.7v-.9h-1.1l-7.2-7.3 3.3-3.1-7-7.1 5.5-5.4-.7-.7-6.2 6.1 7 7.1-3.3 3.1 8.3 8.2zM489 169.4h3.6v6.2h-5.4v-4.4zM470.4 206.6l-.7-.7-3.5-.1-1.3 1.3 2.4 2.5zM482.9 174.5l.1-3.4-1.4-1.4-2.5 2.4 3.1 3.1zM466.9 219.2l-4.4-4.4v3l4.4 4.4z"/></g></g><g><circle class="st2" cx="518.7" cy="243.6" r="1.7"/><path class="st9" d="M518.7 242.3c.8 0 1.4.6 1.4 1.4 0 .8-.6 1.4-1.4 1.4-.8 0-1.4-.6-1.4-1.4 0-.9.6-1.4 1.4-1.4m0-.7c-1.1 0-2 .9-2 2s.9 2 2 2 2-.9 2-2-.8-2-2-2z"/></g><g><circle class="st2" cx="478.6" cy="244" r="1.7"/><path class="st9" d="M478.6 242.6c.8 0 1.4.6 1.4 1.4 0 .8-.6 1.4-1.4 1.4s-1.4-.6-1.4-1.4c0-.8.7-1.4 1.4-1.4m0-.7c-1.1 0-2 .9-2 2s.9 2 2 2 2-.9 2-2-.8-2-2-2z"/></g><g><circle class="st2" cx="477.5" cy="159.9" r="1.7"/><path class="st9" d="M477.5 158.5c.8 0 1.4.6 1.4 1.4 0 .8-.6 1.4-1.4 1.4-.8 0-1.4-.6-1.4-1.4 0-.8.6-1.4 1.4-1.4m0-.6c-1.1 0-2 .9-2 2s.9 2 2 2 2-.9 2-2c0-1.2-.9-2-2-2z"/></g><g><circle class="st2" cx="518.9" cy="159.9" r="1.7"/><path class="st9" d="M518.9 158.5c.8 0 1.4.6 1.4 1.4 0 .8-.6 1.4-1.4 1.4-.8 0-1.4-.6-1.4-1.4.1-.8.6-1.4 1.4-1.4m0-.6c-1.1 0-2 .9-2 2s.9 2 2 2 2-.9 2-2c0-1.2-.9-2-2-2z"/></g><g><circle class="st2" cx="533.2" cy="185.8" r="1.7"/><path class="st9" d="M533.2 184.4c.8 0 1.4.6 1.4 1.4 0 .8-.6 1.4-1.4 1.4-.8 0-1.4-.6-1.4-1.4 0-.8.6-1.4 1.4-1.4m0-.7c-1.1 0-2 .9-2 2s.9 2 2 2 2-.9 2-2c0-1.2-.9-2-2-2z"/></g><g><circle class="st2" cx="463.9" cy="185.8" r="1.7"/><path class="st9" d="M463.9 184.4c.8 0 1.4.6 1.4 1.4 0 .8-.6 1.4-1.4 1.4-.8 0-1.4-.6-1.4-1.4 0-.8.6-1.4 1.4-1.4m0-.7c-1.1 0-2 .9-2 2s.9 2 2 2 2-.9 2-2c.1-1.2-.9-2-2-2z"/></g><g><path class="st5" d="M467.7 128.5c-7 0-13.3-2.5-17.9-7-1.9 1.5-4.1 2.6-6.4 3.4-2.6.9-5.3 1.4-8 1.4-8.3 0-15.4-4.2-18.8-11-7-.3-13.1-2.9-17-7.1-2.9 1.6-6.3 2.5-10 2.5h-25.5c-8.7 0-15.8-6.1-15.8-13.5 0-4.8 3-9.2 7.8-11.7 1-6.1 6.3-10.7 12.5-10.7 1.1 0 2 .1 3 .4 2.6-4.8 7.6-7.8 13.1-7.8 4.9 0 9.3 2.5 12.1 6.2 2.7-5.3 7.5-9.8 13.7-12.5 1.1-11.9 11.3-21.4 23.4-21.4 2.7 0 5.3.4 7.8 1.3 4.5-10.2 14.5-16.9 25.9-16.9 15.6 0 28.3 12.7 28.3 28.3V54c7 3.5 12.2 8.9 15 15.2 2.8-2.9 6.8-4.6 11-4.6 8.5 0 15.4 7 15.4 15.4 5.3 2.9 8.5 7.9 8.5 13.4 0 8.8-8.5 16-18.8 16h-26.6c-1.9 0-3.8-.3-5.6-.9-2.3 8.1-8.8 15-17.4 18.1-3.2 1.4-6.4 1.9-9.7 1.9z"/><path class="st4" d="M467.8 27c14.2 0 25.6 11.4 25.6 25.6 0 1.1-.1 2.1-.2 3.2 8.9 4 15.3 11.2 16.8 19.7 1.8-4.7 6.5-8 11.9-8 7 0 12.8 5.7 12.8 12.8 0 .5 0 1.1-.1 1.6 5.1 2.3 8.5 6.7 8.5 11.8 0 7.4-7.2 13.4-16.2 13.4h-26.6c-2.8 0-5.4-.7-7.6-1.8-1.1 8.3-7.2 16-16.4 19.3-2.9 1.1-5.9 1.5-8.7 1.5-7 0-13.6-2.9-17.7-7.9-2.1 1.9-4.7 3.5-7.6 4.6-2.4.8-4.8 1.2-7.1 1.2-7.6 0-14.4-4.1-17-10.9h-.4c-7.7 0-14.4-2.9-17.8-8-2.7 2.1-6.4 3.3-10.5 3.3H364c-7.2 0-13.1-4.8-13.1-10.8 0-4.4 3.2-8.2 7.7-9.9.1-5.5 4.6-9.9 10-9.9 1.6 0 3.1.4 4.4 1.1 1.6-4.9 6.3-8.5 11.7-8.5 6.8 0 12.3 5.5 12.3 12.3 0 .5 0 1.1-.1 1.5 0 0 .1 0 .1.1v-.4c0-9.2 6.6-17.1 16-20.6.2-11.4 9.5-20.5 20.9-20.5 3.3 0 6.5.8 9.2 2.2 3.7-10.6 13.3-18 24.7-18m0-5.3c-11.6 0-22 6.3-27.3 16.3-2.1-.5-4.2-.8-6.4-.8-7 0-13.5 2.6-18.3 7.5-4.1 4.1-6.7 9.2-7.5 14.7-4.8 2.4-8.9 5.8-11.7 9.9-3.1-2.7-7.2-4.4-11.6-4.4-5.9 0-11.2 2.9-14.4 7.6-.5-.1-1.1-.1-1.7-.1-7.1 0-13.1 4.9-14.8 11.6-5 3-8.1 7.9-8.1 13.4 0 8.9 8.3 16.1 18.4 16.1h25.5c3.3 0 6.5-.7 9.4-1.9 4.1 3.6 9.6 5.9 15.9 6.4 4 6.9 11.6 11.1 20.3 11.1 3 0 6-.5 8.9-1.5 1.9-.7 3.7-1.5 5.4-2.6 4.9 4 11.3 6.3 18.1 6.3 3.5 0 7-.6 10.5-1.8 8.6-3 15.3-9.5 18.3-17.4 1.2.3 2.6.4 3.9.4h26.6c11.8 0 21.5-8.4 21.5-18.7 0-6-3.2-11.4-8.5-14.9-.8-9.2-8.5-16.6-18-16.6-3.7 0-7.2 1.1-10.1 3.1-3-5.1-7.5-9.5-13.1-12.6-.3-17.2-14.2-31.1-31.2-31.1z"/></g><g><path class="st5" d="M386.9 123.8c-6.3 0-11.4-4.3-11.4-9.6 0-3.5 2.3-6.8 5.9-8.5.5-4.5 4.3-7.9 8.9-7.9.9 0 1.8.2 2.6.4 1.8-3.7 5.5-6.1 9.7-6.1 5.9 0 10.7 4.8 10.7 10.7v.4c3.9 2 6.3 5.5 6.3 9.4 0 6.2-5.9 11.2-13.2 11.2h-19.5z"/><path class="st4" d="M402.7 93.4c5.2 0 9.4 4.2 9.4 9.4 0 .4 0 .8-.1 1.1 3.7 1.7 6.3 4.9 6.3 8.6 0 5.5-5.3 9.9-11.9 9.9h-19.6c-5.5 0-10-3.7-10-8.3 0-3.3 2.4-6.3 5.9-7.6.1-4.1 3.4-7.5 7.7-7.5 1.2 0 2.4.3 3.4.8 1.2-3.7 4.7-6.4 8.9-6.4m0-2.7c-4.3 0-8.2 2.3-10.3 5.9-.6-.1-1.3-.2-1.9-.2-5 0-9.2 3.6-10.1 8.4-3.7 1.9-6.1 5.5-6.1 9.3 0 6 5.7 10.9 12.7 10.9h19.6c8 0 14.5-5.6 14.5-12.5 0-4.1-2.4-7.9-6.3-10.2-.3-6.4-5.6-11.6-12.1-11.6z"/></g><g><path class="st4" d="M405.2 217.4c-10.9 0-19.7-8.9-19.7-19.7s8.9-19.7 19.7-19.7 19.7 8.9 19.7 19.7-8.8 19.7-19.7 19.7z"/><path class="st9" d="M405.2 178.6c10.5 0 19 8.5 19 19s-8.5 19-19 19-19-8.5-19-19 8.5-19 19-19m0-1.4c-11.3 0-20.4 9.2-20.4 20.4S394 218 405.2 218s20.4-9.2 20.4-20.4c0-11.3-9-20.4-20.4-20.4z"/><path class="st4" d="M542.8 164.6c-5.3 0-9.6-4.3-9.6-9.6s4.3-9.6 9.6-9.6 9.6 4.3 9.6 9.6-4.4 9.6-9.6 9.6z"/><path class="st9" d="M542.8 146.1c4.9 0 8.9 4 8.9 8.9s-4 8.9-8.9 8.9-8.9-4-8.9-8.9 3.9-8.9 8.9-8.9m0-1.5c-5.7 0-10.3 4.6-10.3 10.3s4.6 10.3 10.3 10.3c5.7 0 10.3-4.6 10.3-10.3 0-5.6-4.6-10.3-10.3-10.3z"/><path class="st4" d="M632.9 220.4c-5.2 0-9.4-4.2-9.4-9.4s4.2-9.4 9.4-9.4 9.4 4.2 9.4 9.4-4.2 9.4-9.4 9.4z"/><path class="st9" d="M632.9 202.2c4.8 0 8.7 4 8.7 8.7 0 4.8-4 8.7-8.7 8.7s-8.7-4-8.7-8.7c-.1-4.8 3.9-8.7 8.7-8.7m0-1.4c-5.6 0-10.1 4.6-10.1 10.1s4.6 10.1 10.1 10.1 10.1-4.6 10.1-10.1-4.5-10.1-10.1-10.1z"/><circle class="st4" cx="364.3" cy="175.2" r="6.4"/><path class="st9" d="M364.3 169.5c3.2 0 5.7 2.6 5.7 5.7s-2.6 5.7-5.7 5.7-5.7-2.6-5.7-5.7c-.1-3.2 2.6-5.7 5.7-5.7m0-1.4c-4 0-7.1 3.2-7.1 7.1s3.2 7.1 7.1 7.1c4 0 7.1-3.2 7.1-7.1s-3.1-7.1-7.1-7.1z"/><path class="st4" d="M607.5 271.7c-10.9 0-19.7-8.9-19.7-19.7s8.9-19.7 19.7-19.7 19.7 8.9 19.7 19.7-8.8 19.7-19.7 19.7z"/><path class="st9" d="M607.5 233c10.5 0 19 8.5 19 19s-8.5 19-19 19-19-8.5-19-19 8.5-19 19-19m0-1.4c-11.3 0-20.4 9.2-20.4 20.4 0 11.3 9.2 20.4 20.4 20.4s20.4-9.2 20.4-20.4-9.1-20.4-20.4-20.4z"/><circle class="st4" cx="591.4" cy="283.5" r="6.2"/><path class="st9" d="M591.4 278.1c3 0 5.5 2.5 5.5 5.5s-2.5 5.5-5.5 5.5-5.5-2.5-5.5-5.5 2.5-5.5 5.5-5.5m0-1.4c-3.8 0-6.9 3.1-6.9 6.9 0 3.8 3.1 6.9 6.9 6.9 3.8 0 6.9-3.1 6.9-6.9-.1-3.9-3.1-6.9-6.9-6.9z"/><circle class="st4" cx="629.2" cy="172.3" r="6.2"/><path class="st9" d="M629.2 166.8c3 0 5.5 2.5 5.5 5.5s-2.5 5.5-5.5 5.5-5.5-2.5-5.5-5.5 2.5-5.5 5.5-5.5m0-1.4c-3.8 0-6.9 3.1-6.9 6.9 0 3.8 3.1 6.9 6.9 6.9s6.9-3.1 6.9-6.9c-.1-3.8-3.2-6.9-6.9-6.9z"/><path class="st4" d="M529.3 323.7c-10.9 0-19.7-8.9-19.7-19.7s8.9-19.7 19.7-19.7c10.8 0 19.7 8.9 19.7 19.7s-8.8 19.7-19.7 19.7z"/><path class="st9" d="M529.3 284.9c10.5 0 19 8.5 19 19s-8.5 19-19 19-19-8.5-19-19 8.5-19 19-19m0-1.4c-11.3 0-20.4 9.2-20.4 20.4 0 11.3 9.2 20.4 20.4 20.4s20.4-9.2 20.4-20.4-9.1-20.4-20.4-20.4z"/><path class="st4" d="M495.6 347.4c-4.3 0-7.8-3.4-7.8-7.8 0-4.3 3.4-7.8 7.8-7.8 4.3 0 7.8 3.4 7.8 7.8 0 4.3-3.4 7.8-7.8 7.8z"/><path class="st9" d="M495.6 332.6c3.9 0 7 3.2 7 7 0 3.9-3.2 7-7 7s-7-3.2-7-7 3.2-7 7-7m0-1.4c-4.7 0-8.5 3.8-8.5 8.5s3.8 8.5 8.5 8.5 8.5-3.8 8.5-8.5-3.8-8.5-8.5-8.5z"/><path class="st4" d="M442.5 336.5c-4.4 0-8-3.6-8-8s3.6-8 8-8 8 3.6 8 8c.1 4.4-3.6 8-8 8z"/><path class="st9" d="M442.5 321.2c4.1 0 7.3 3.3 7.3 7.3 0 4.1-3.3 7.3-7.3 7.3-4.1 0-7.3-3.3-7.3-7.3s3.3-7.3 7.3-7.3m0-1.4c-4.8 0-8.7 3.9-8.7 8.7 0 4.8 3.9 8.7 8.7 8.7s8.7-3.9 8.7-8.7c.1-4.8-3.8-8.7-8.7-8.7z"/><path class="st4" d="M455.8 292.1c-6.3 0-11.5-5.2-11.5-11.5s5.2-11.5 11.5-11.5 11.5 5.2 11.5 11.5-5.1 11.5-11.5 11.5z"/><path class="st9" d="M455.8 269.7c6 0 10.8 4.8 10.8 10.8 0 6-4.8 10.8-10.8 10.8-6 0-10.8-4.8-10.8-10.8-.1-6 4.8-10.8 10.8-10.8m0-1.4c-6.8 0-12.2 5.5-12.2 12.2 0 6.8 5.5 12.2 12.2 12.2 6.8 0 12.2-5.5 12.2-12.2.1-6.7-5.5-12.2-12.2-12.2z"/><circle class="st4" cx="448.1" cy="238.6" r="6.5"/><path class="st9" d="M448.1 232.8c3.2 0 5.8 2.6 5.8 5.8 0 3.2-2.6 5.8-5.8 5.8-3.2 0-5.8-2.6-5.8-5.8.1-3.2 2.6-5.8 5.8-5.8m0-1.3c-4 0-7.1 3.2-7.1 7.1s3.2 7.1 7.1 7.1c4 0 7.1-3.2 7.1-7.1.1-4-3.2-7.1-7.1-7.1z"/><path class="st4" d="M553.9 248.5c-4.8 0-8.8-4-8.8-8.8 0-4.8 4-8.8 8.8-8.8 4.8 0 8.8 4 8.8 8.8.1 4.8-3.9 8.8-8.8 8.8z"/><path class="st9" d="M553.9 231.6c4.5 0 8.1 3.6 8.1 8.1s-3.6 8.1-8.1 8.1-8.1-3.6-8.1-8.1 3.7-8.1 8.1-8.1m0-1.4c-5.3 0-9.5 4.2-9.5 9.5s4.2 9.5 9.5 9.5 9.5-4.2 9.5-9.5c.1-5.3-4.3-9.5-9.5-9.5z"/><path class="st4" d="M448.6 177.8c-5 0-9.1-4.1-9.1-9.1s4.1-9.1 9.1-9.1 9.1 4.1 9.1 9.1-4.1 9.1-9.1 9.1z"/><path class="st9" d="M448.6 160.4c4.6 0 8.4 3.8 8.4 8.4s-3.8 8.4-8.4 8.4-8.4-3.8-8.4-8.4 3.8-8.4 8.4-8.4m0-1.4c-5.4 0-9.8 4.4-9.8 9.8s4.4 9.8 9.8 9.8 9.8-4.4 9.8-9.8-4.3-9.8-9.8-9.8z"/><circle class="st4" cx="408.4" cy="144.9" r="6.3"/><path class="st9" d="M408.4 139.3c3.1 0 5.6 2.6 5.6 5.6s-2.6 5.6-5.6 5.6-5.6-2.6-5.6-5.6 2.5-5.6 5.6-5.6m0-1.4c-3.9 0-7 3.2-7 7s3.2 7 7 7c3.9 0 7-3.2 7-7s-3.2-7-7-7z"/><path class="st4" d="M417.4 243.3c-4.9 0-9-4.1-9-9s4.1-9 9-9 9 4.1 9 9-4 9-9 9z"/><path class="st9" d="M417.4 226c4.6 0 8.3 3.7 8.3 8.3s-3.7 8.3-8.3 8.3c-4.6 0-8.3-3.7-8.3-8.3 0-4.6 3.8-8.3 8.3-8.3m0-1.4c-5.4 0-9.7 4.3-9.7 9.7s4.3 9.7 9.7 9.7 9.7-4.3 9.7-9.7-4.4-9.7-9.7-9.7z"/><path class="st4" d="M379.2 144.8c-4.3 0-7.8-3.4-7.8-7.8s3.4-7.8 7.8-7.8c4.3 0 7.8 3.4 7.8 7.8s-3.6 7.8-7.8 7.8z"/><path class="st9" d="M379.2 130c3.9 0 7 3.2 7 7s-3.2 7-7 7c-3.9 0-7-3.2-7-7s3.1-7 7-7m0-1.4c-4.7 0-8.5 3.8-8.5 8.5s3.8 8.5 8.5 8.5 8.5-3.8 8.5-8.5-3.8-8.5-8.5-8.5z"/><path class="st4" d="M362.8 227.2c-4.3 0-7.8-3.4-7.8-7.8s3.4-7.8 7.8-7.8c4.3 0 7.8 3.4 7.8 7.8s-3.5 7.8-7.8 7.8z"/><path class="st9" d="M362.8 212.3c3.9 0 7 3.2 7 7s-3.2 7-7 7c-3.9 0-7-3.2-7-7s3.1-7 7-7m0-1.3c-4.7 0-8.5 3.8-8.5 8.5s3.8 8.5 8.5 8.5 8.5-3.8 8.5-8.5-3.8-8.5-8.5-8.5z"/><path class="st4" d="M312.9 265.3c-6.7 0-12.2-5.5-12.2-12.2 0-6.7 5.5-12.2 12.2-12.2 6.7 0 12.2 5.5 12.2 12.2 0 6.7-5.6 12.2-12.2 12.2z"/><path class="st9" d="M312.9 241.8c6.3 0 11.4 5.1 11.4 11.4s-5.1 11.4-11.4 11.4c-6.3 0-11.4-5.1-11.4-11.4s5.1-11.4 11.4-11.4m0-1.4c-7 0-12.8 5.7-12.8 12.8 0 7 5.7 12.8 12.8 12.8 7 0 12.8-5.7 12.8-12.8 0-7.1-5.8-12.8-12.8-12.8z"/><g><circle class="st4" cx="307.7" cy="285.9" r="5.9"/><path class="st9" d="M307.7 280.7c2.9 0 5.2 2.4 5.2 5.2s-2.4 5.2-5.2 5.2c-2.8 0-5.2-2.4-5.2-5.2s2.3-5.2 5.2-5.2m0-1.4c-3.6 0-6.6 3-6.6 6.6s3 6.6 6.6 6.6c3.6 0 6.6-3 6.6-6.6s-3-6.6-6.6-6.6z"/></g><g><circle class="st4" cx="291.9" cy="227.9" r="5.9"/><path class="st9" d="M291.9 222.6c2.9 0 5.2 2.4 5.2 5.2s-2.4 5.2-5.2 5.2c-2.8 0-5.2-2.4-5.2-5.2s2.3-5.2 5.2-5.2m0-1.3c-3.6 0-6.6 3-6.6 6.6 0 3.6 3 6.6 6.6 6.6s6.6-3 6.6-6.6c0-3.6-2.9-6.6-6.6-6.6z"/></g><g><circle class="st4" cx="351.1" cy="259" r="5.9"/><path class="st9" d="M351.1 253.8c2.9 0 5.2 2.4 5.2 5.2s-2.4 5.2-5.2 5.2c-2.8 0-5.2-2.4-5.2-5.2s2.3-5.2 5.2-5.2m0-1.4c-3.6 0-6.6 3-6.6 6.6 0 3.6 3 6.6 6.6 6.6 3.6 0 6.6-3 6.6-6.6 0-3.7-3-6.6-6.6-6.6z"/></g><g><circle class="st4" cx="338.3" cy="191.2" r="5.9"/><path class="st9" d="M338.3 186c2.9 0 5.2 2.4 5.2 5.2 0 2.8-2.4 5.2-5.2 5.2s-5.2-2.4-5.2-5.2c0-2.8 2.3-5.2 5.2-5.2m0-1.4c-3.6 0-6.6 3-6.6 6.6 0 3.6 3 6.6 6.6 6.6s6.6-3 6.6-6.6c0-3.6-3-6.6-6.6-6.6z"/></g><g><circle class="st4" cx="342.2" cy="141" r="5.9"/><path class="st9" d="M342.2 135.7c2.9 0 5.2 2.4 5.2 5.2 0 2.9-2.4 5.2-5.2 5.2s-5.2-2.4-5.2-5.2 2.3-5.2 5.2-5.2m0-1.3c-3.6 0-6.6 3-6.6 6.6s3 6.6 6.6 6.6c3.6 0 6.6-3 6.6-6.6 0-3.7-3-6.6-6.6-6.6z"/></g><g><path class="st4" d="M412.9 299.2c-10.9 0-19.7-8.9-19.7-19.7s8.9-19.7 19.7-19.7 19.7 8.9 19.7 19.7-8.8 19.7-19.7 19.7z"/><path class="st9" d="M412.9 260.4c10.5 0 19 8.5 19 19s-8.5 19-19 19-19-8.5-19-19 8.5-19 19-19m0-1.4c-11.3 0-20.4 9.2-20.4 20.4 0 11.3 9.2 20.4 20.4 20.4s20.4-9.2 20.4-20.4-9.2-20.4-20.4-20.4z"/></g><g><circle class="st4" cx="576" cy="314.7" r="7.4"/><path class="st9" d="M576 308c3.7 0 6.8 3 6.8 6.8 0 3.7-3 6.8-6.8 6.8s-6.8-3-6.8-6.8c.1-3.8 3.1-6.8 6.8-6.8m0-1.4c-4.5 0-8.1 3.6-8.1 8.1s3.6 8.1 8.1 8.1 8.1-3.6 8.1-8.1-3.6-8.1-8.1-8.1z"/></g><g><path class="st4" d="M531.2 276c-4.4 0-8-3.6-8-8s3.6-8 8-8 8 3.6 8 8c0 4.3-3.6 8-8 8z"/><path class="st9" d="M531.2 260.6c4.1 0 7.3 3.3 7.3 7.3 0 4.1-3.3 7.3-7.3 7.3s-7.3-3.3-7.3-7.3 3.3-7.3 7.3-7.3m0-1.4c-4.8 0-8.7 3.9-8.7 8.7 0 4.8 3.9 8.7 8.7 8.7s8.7-3.9 8.7-8.7c0-4.8-3.9-8.7-8.7-8.7z"/></g><g><path class="st4" d="M565.7 211c-6.3 0-11.5-5.2-11.5-11.5s5.2-11.5 11.5-11.5 11.5 5.2 11.5 11.5-5.1 11.5-11.5 11.5z"/><path class="st9" d="M565.7 188.6c6 0 10.8 4.8 10.8 10.8 0 6-4.8 10.8-10.8 10.8s-10.8-4.8-10.8-10.8c0-6 4.9-10.8 10.8-10.8m0-1.4c-6.8 0-12.2 5.5-12.2 12.2s5.5 12.2 12.2 12.2c6.8 0 12.2-5.5 12.2-12.2s-5.5-12.2-12.2-12.2z"/></g><g><path class="st4" d="M596.4 186.3c-4.3 0-7.8-3.4-7.8-7.8s3.4-7.8 7.8-7.8 7.8 3.4 7.8 7.8-3.5 7.8-7.8 7.8z"/><path class="st9" d="M596.4 171.5c3.9 0 7 3.2 7 7s-3.2 7-7 7-7-3.2-7-7 3.1-7 7-7m0-1.4c-4.7 0-8.5 3.8-8.5 8.5s3.8 8.5 8.5 8.5 8.5-3.8 8.5-8.5c-.1-4.7-3.8-8.5-8.5-8.5z"/></g><g><path class="st4" d="M559.2 132.9c-10.9 0-19.7-8.9-19.7-19.7s8.9-19.7 19.7-19.7c10.8 0 19.7 8.9 19.7 19.7s-8.8 19.7-19.7 19.7z"/><path class="st9" d="M559.2 94.1c10.5 0 19 8.5 19 19s-8.5 19-19 19-19-8.5-19-19 8.5-19 19-19m0-1.4c-11.3 0-20.4 9.2-20.4 20.4s9.2 20.4 20.4 20.4 20.4-9.2 20.4-20.4c.1-11.3-9-20.4-20.4-20.4z"/></g><g><path class="st4" d="M502.1 138.1c-6.3 0-11.5-5.2-11.5-11.5s5.2-11.5 11.5-11.5 11.5 5.2 11.5 11.5-5.1 11.5-11.5 11.5z"/><path class="st9" d="M502.1 115.8c6 0 10.8 4.8 10.8 10.8s-4.8 10.8-10.8 10.8c-6 0-10.8-4.8-10.8-10.8s4.8-10.8 10.8-10.8m0-1.5c-6.8 0-12.2 5.5-12.2 12.2 0 6.8 5.5 12.2 12.2 12.2 6.8 0 12.2-5.5 12.2-12.2 0-6.7-5.4-12.2-12.2-12.2z"/></g><g><path class="st4" d="M437.7 137.9c-5.4 0-9.8-4.4-9.8-9.8s4.4-9.8 9.8-9.8 9.8 4.4 9.8 9.8-4.4 9.8-9.8 9.8z"/><path class="st9" d="M437.7 119.1c5 0 9.1 4.1 9.1 9.1s-4.1 9.1-9.1 9.1-9.1-4.1-9.1-9.1 4.1-9.1 9.1-9.1m0-1.4c-5.8 0-10.5 4.7-10.5 10.5s4.7 10.5 10.5 10.5 10.5-4.7 10.5-10.5c-.1-5.8-4.8-10.5-10.5-10.5z"/></g><g><path class="st4" d="M657.1 270.1c-5.3 0-9.6-4.3-9.6-9.6s4.3-9.6 9.6-9.6 9.6 4.3 9.6 9.6c-.1 5.3-4.3 9.6-9.6 9.6z"/><path class="st9" d="M657.1 251.7c4.9 0 8.9 4 8.9 8.9s-4 8.9-8.9 8.9-8.9-4-8.9-8.9 3.9-8.9 8.9-8.9m0-1.4c-5.6 0-10.2 4.6-10.2 10.2s4.6 10.2 10.2 10.2 10.2-4.6 10.2-10.2-4.6-10.2-10.2-10.2z"/></g><g><circle class="st4" cx="666.7" cy="225.2" r="5.9"/><path class="st9" d="M666.7 219.9c2.9 0 5.2 2.4 5.2 5.2s-2.4 5.2-5.2 5.2c-2.8 0-5.2-2.4-5.2-5.2s2.3-5.2 5.2-5.2m0-1.3c-3.6 0-6.6 3-6.6 6.6 0 3.6 3 6.6 6.6 6.6 3.6 0 6.6-3 6.6-6.6 0-3.6-3-6.6-6.6-6.6z"/></g><g><circle class="st4" cx="654.6" cy="186.6" r="5.9"/><path class="st9" d="M654.6 181.3c2.9 0 5.2 2.4 5.2 5.2s-2.4 5.2-5.2 5.2c-2.8 0-5.2-2.4-5.2-5.2s2.3-5.2 5.2-5.2m0-1.3c-3.6 0-6.6 3-6.6 6.6 0 3.6 3 6.6 6.6 6.6s6.6-3 6.6-6.6c0-3.7-3-6.6-6.6-6.6z"/></g><g><circle class="st4" cx="661.1" cy="158.5" r="6"/><path class="st9" d="M661.1 153.2c2.9 0 5.3 2.4 5.3 5.3s-2.4 5.3-5.3 5.3-5.3-2.4-5.3-5.3 2.3-5.3 5.3-5.3m0-1.4a6.7 6.7 0 1 0 0 13.4 6.7 6.7 0 0 0 0-13.4z"/></g><g><path class="st4" d="M660.4 139c-5.6 0-10.1-4.6-10.1-10.1 0-5.6 4.6-10.1 10.1-10.1s10.1 4.6 10.1 10.1S666 139 660.4 139z"/><path class="st9" d="M660.4 119.5c5.2 0 9.4 4.2 9.4 9.4s-4.2 9.4-9.4 9.4-9.4-4.2-9.4-9.4 4.2-9.4 9.4-9.4m0-1.5c-6 0-10.8 4.8-10.8 10.8s4.8 10.8 10.8 10.8 10.8-4.8 10.8-10.8-4.8-10.8-10.8-10.8z"/></g></g><g><path id="polygon287_5_" class="st10" d="M523.3 309.2l-2.4 1.1 2.2 1 2.6-1-2.4-1.1zm-3.6 1.4l-.1 4.7 3.5 1.6V312l-3.4-1.4zm7.2 0l-3.2 1.2v4.6l3.2-1.3v-4.5z"/><path id="polygon311_5_" class="st10" d="M530.7 296l-2.5 1.1 2.2 1 2.6-1-2.3-1.1zm-3.4 1.4v4.7l3 .9.1-4.2-3.1-1.4zm6.7.3l-2.8 1.2v4.6l2.8-1.3v-4.5z"/><path id="use3387_5_" class="st10" d="M519.3 302.6l-2.4 1.1 2.2 1 2.6-1-2.4-1.1zm-3.6 1.3l-.1 4.7 3.5 1.6v-4.8l-3.4-1.5zm7.2 0l-3.2 1.2v4.6l3.2-1.3v-4.5z"/><path id="use3389_5_" class="st10" d="M527.1 302.5l-2.4 1.1 2.2 1 2.6-1-2.4-1.1zm-3.6 1.2l-.1 4.7 3.5 1.6v-4.8l-3.4-1.5zm7.2 0l-3.2 1.2v4.6l3.2-1.3v-4.5z"/><path id="use3391_5_" class="st10" d="M538.3 296l-2.4 1.1 2.2 1 2.6-1-2.4-1.1zm-3.6 1.4l-.1 4.7 3.5 1.6v-4.8l-3.4-1.5zm7.2 0l-3.2 1.2v4.6l3.2-1.3v-4.5z"/></g><g><path class="st10" d="M604.2 248.7c0 .9.4 1.7 1.1 2.3.9.7 1.6 2.1 1.6 3.7 0 1.7-.1 3.7-.2 4.7-.9.1-1.6.4-1.6.8s1.1 1.1 2.6 1.1c1.4 0 2.6-.5 2.6-1.1 0-.4-.6-.7-1.6-.8-.1-1-.2-3-.2-4.7 0-1.6.7-3 1.6-3.7.7-.5 1.1-1.4 1.1-2.3 0-1.7-1.6-3.1-3.5-3.1-1.9.1-3.4 1.5-3.5 3.1zm10.4 12.3c.2-.1.3-.1.4-.1s.4-.1.5-.1v-.2c0-.1 0-.2-.1-.3 0-.1 0-.1-.1-.2 0-.1-.1-.1-.1-.1l-.1-.1c-.2 0-.4-.1-.5-.1-.2 0-.3-.1-.4-.2-.3-.1-.5-.3-.6-.4s-.2-.3-.2-.4 0-.1.1-.2l.2-.2-.2-.1s-.1-.1-.2-.1l-.2-.1c-.1-.1-.3-.1-.4-.2l-.2-.1h-.8c-.3 0-.5-.1-.8-.2-.1 0-.3-.1-.4-.1-.1 0-.2-.1-.3-.1-.1-.1-.2-.2-.2-.3h-.2c-.1 0-.4-.1-.5-.1V257.3c-.1.4.2.8.5.9 1 .3 1.7.7 1.8 1.3.4 1.1-1.3 2.3-4.1 2.3s-4.5-1.1-4.1-2.3c.2-.5.9-1 1.8-1.3.4-.1.6-.5.5-1l-.1-.3h-.4c-.2 0-.4 0-.4.1h-.2c0 .1-.1.2-.2.3-.1.1-.2.1-.3.2-.1 0-.2.1-.4.1-.1 0-.3.1-.4.1-.2 0-.3 0-.4.1h-1s-.1 0-.1.1l-.4.2c-.1.1-.3.1-.4.2l-.1.1c.2.1.3.2.3.4 0 .1 0 .3-.2.4-.1.1-.2.2-.3.2-.1.1-.3.2-.4.2-.3.2-.6.3-1 .3 0 0 0 .1-.1.1 0 .1-.1.2-.1.3v.5c.4 0 .6.1 1 .2.3.1.4.2.6.4.1.2.2.4.1.6-.1.3-.3.4-.5.7l.1.1c.1.1.3.2.4.3l.5.3c.1 0 .2.1.2.1h.1c.4-.2.9-.3 1.3-.4h.6c.2 0 .4 0 .6.1.2 0 .4.1.5.2.2.1.4.2.4.3.3.2.5.5.6.8h2.5c0-.2.1-.3.2-.4l.2-.2.2-.2c.2-.1.3-.2.4-.3.2-.1.4-.2.5-.2.2 0 .4-.1.6-.1h.6c.4 0 .9.1 1.3.3l.3-.1c.2-.1.4-.2.4-.3.2-.1.3-.2.4-.3l.2-.2c-.3-.2-.4-.4-.6-.7 0-.1-.1-.2-.1-.4 0-.1 0-.2.1-.3 1.4.1 1.6 0 1.8-.1zm-9.1-5.6s.4-1.5-1.3-3.4l-.1-.1c-1.8-2-1.5-5.1.6-6.8.9-.7 1.9-1.1 3.1-1.1h.1c2.6 0 4.8 2.1 4.8 4.8 0 1.1-.4 2.3-1.1 3.1l-.1.1c-1.6 1.6-1.3 3.4-1.3 3.4 2.8-1 4.8-3.6 4.8-6.6 0-3.7-3-6.9-6.7-7h-.5-.3-.2c-3.7.2-6.7 3.3-6.7 7 .2 3 2 5.7 4.9 6.6z"/></g><g><g id="XMLID_13_"><path id="XMLID_15_" class="st10" d="M413.8 208.6c-.1 0-.1 0 0 0-2.6-.2-4.8-.9-6.3-2-.8.2-1.6.2-2.4.2-6.3 0-11.5-4.6-11.5-10.1s5.2-10.1 11.5-10.1 11.5 4.6 11.5 10.1c0 3-1.6 5.9-4.1 7.8.3.8.8 1.8 1.7 2.3.4.2.6.7.5 1.1-.1.4-.4.7-.9.7zm-6-4.1c.3 0 .4.1.6.3.6.6 1.6 1.1 2.6 1.4-.5-1-.7-1.9-.7-1.9-.1-.4.1-.8.4-1 2.5-1.6 3.9-4 3.9-6.6 0-4.5-4.3-8.2-9.6-8.2s-9.6 3.7-9.6 8.2c0 4.5 4.3 8.2 9.6 8.2.8 0 1.7-.1 2.5-.3.2-.1.3-.1.3-.1z"/><path id="XMLID_14_" class="st10" d="M405.2 202.3c-4.1 0-6.3-3-6.3-3.1-.2-.3-.2-.6.1-.8.3-.2.5-.2.8.1.1.1 1.8 1.9 5.5 1.9s5.2-1.9 5.2-1.9c.2-.3.5-.3.8-.2.3.2.3.5.2.8-.3.2-2.2 3.2-6.3 3.2z"/></g></g><g><path class="st10" d="M567.3 191.2s.5 1 .4 1.6c-.1.6-.3 1.1-1.5 2.2-1.3 1.1-1.8 1.6-1.8 2.3 0 .9 1.4 2.6 1.4 2.6s-2.3-1.4-2.3-3c0-1.1 1.3-1.7 2-2.4.8-.7 1.4-1.2 1.6-1.9.3-.8.2-1.4.2-1.4z"/><path class="st10" d="M569.3 194.4s-2.6 1.5-2.6 2.6c0 .8 1 1.1.9 1.8 0 .7-.9 1.4-1.3 1.5 0 0 .4-.4.4-1 0-.9-1.1-1.7-1.1-2.4.2-.9 1.1-1.5 1.6-1.8.8-.3 2.1-.7 2.1-.7zM569.4 200s.3-.2.6-.1c.3 0 .9.2.9 1s-1 1.3-1.1 1.5c-.2.1-.7.4-.7.4.1 0 .9-.3 1.2-.4.3-.2 1.3-.7 1.3-1.6 0-.9-.9-1.3-1.7-1.1-.4.2-.5.3-.5.3z"/><path class="st10" d="M563.9 199.9s-.5.1-1.1.4c-.5.3-.2.4.1.5 1.1.4 3.7.4 6.2-.4-.7.6-2.6 1.1-4.5 1.1-1.6 0-3.3-.4-3.3-.9 0-.4.6-.4 1.1-.5.4-.1 1.5-.2 1.5-.2zM563.4 201.7s-.4.4.2.6c1.4.4 3.6.2 4.3-.3 0 0 .4.4.7.4 0 0-1.5.9-3.5.7-1.6-.1-2.6-.4-2.6-1-.1-.3.9-.4.9-.4zM563.6 203.4s-.7.1-.7.5.7 1 2.6.9c1.8-.1 2.8-.7 2.8-.7s-.7-.3-.9-.4c0 0-.6.5-2 .5-.8 0-2.2-.2-1.8-.8z"/><path class="st10" d="M562.3 204.6s-1.4.3-1.4.7c0 .4 1.8.7 4.7.7 2.7 0 5.1-.3 4.9-1.2 0 0 .5.4.2.7-.4.5-2.1 1.2-5.6 1.1-3.6 0-5.2-.6-5.2-1.1 0-.6 1.7-1.1 2.4-.9z"/><path class="st10" d="M571.5 205.7s-1.1 1-4.1 1.3c-1.8.2-3.4.2-5.4-.4.5.7 2.6 1.2 5.3 1 3.6-.4 4-1.6 4.2-1.9z"/></g><g><path class="st10" d="M415.6 275.2l.3.1c.1 0 .1 0 .1-.1 0 0 .4-.8 1-.8.2 0 .3.1.3.2.2.3.2.9 0 1.6h-1.2c-.1 0-.1 0-.1.1v.3c0 .1 0 .1.1.1h1.1c-.2.4-.4.9-.5 1.2l-.1.1v.1l1.6 1-.8.5v.2l.2.3s.1.1.1 0l1-.7 1.1.7h.2l.2-.3v-.2l-1-.6c.4-.3 1.5-1 1.5-1v-.1c-.4-.4-.4-.9-.4-1.3h1.3c.1 0 .1 0 .1-.1v-.5H420.5c.3-.4.5-.9 1.6-.9.1 0 .1 0 .1-.1v-.3c0-.1 0-.1-.1-.1-1.1 0-1.8.4-2.1 1.3h-2.2c.1-.5.2-1.3-.1-1.8-.2-.3-.4-.4-.7-.4-1.1 0-1.4 1.1-1.5 1.1 0 .3 0 .4.1.4zm3.9 3l-.9.6-.9-.6h1.8zm.4-.5h-2.7c.2-.4.3-.7.4-1.1h2.1c0 .4 0 .9.2 1.1z"/><path class="st10" d="M425.6 287.6c-.5-.6-1.6-.9-2.3-.8-.6-.7-3.2-3.4-3.7-4 1.1-.8 2.1-1.8 2.8-3h1.5c.1 0 .1 0 .1-.1v-.4c0-.1 0-.1-.1-.1h-1.1c.1-.1.1-.2.2-.3h1.1c.1 0 .1 0 .1-.1v-.4c0-.1 0-.1-.1-.1h-.8c.7-1.5 1-3.2 1-4.9 0-.5-.2-2.6-.4-3.3l-.1-.1c-.7.3-2.2 1.2-2.6 2.3-.7-.1-1.4-.2-2.2-.2-.9 0-1.8.1-2.6.2-.4-1.1-1.8-1.9-2.6-2.4h-.1c-.4.7-.6 2.3-.5 3.4 0 1 .2 1.9.4 2.8-3.2.8-6.8 2.9-9 5.1-.8-1.1-1.2-2.1-1.4-3.1-.2-1 .1-1.9.7-2.6.6-.7 1.4-1.1 2.5-1.1.4 0 .6 0 1.1.1 0 .2 0 .4.1.5.3.4 1.1.5 1.9.5.6 0 1.2-.1 1.7-.4l.1-.1v-.1c-.8-1.1-2.2-1.7-2.9-1.7-.2 0-.3 0-.4.1-.2.1-.3.2-.4.4-.5-.1-1-.2-1.2-.2-1.2 0-2.2.4-2.9 1.3-.7.9-1 1.9-.8 3.1.2 1.1.7 2.2 1.6 3.4-.1.2-.3.3-.4.4-2.1 2.4-3.9 5.1-3.9 5.6v.3c0 .1 0 .1.1.1h2.9c.1 0 .1 0 .1-.1l-.1-.3c-.2-.9.2-1.9.8-2.6.4-.4 1.1-1.1 2.1-1.3 1 1 2.2 1.9 3.6 2.9h2.2c.1 0 .1 0 .1-.1v-.1c0-.3-.2-.5-.4-.7-.2-.2-.4-.2-.8-.2-.2 0-.4 0-.6.1-.4-.4-.6-1.1-.7-1.8 4.9.4 9.7 2.6 14.1 4.9h2.8s.1 0 .1-.1v-.2c-.2.2-.3-.2-.7-.5zm-16.4-6.6l-.4-.1h-.1v.1c-.3.8-.4 1.6-.4 2.3-.4 0-1-.1-1.4-.1-.4 0-.8 0-1.1.1-.4-.4-.8-.8-1.1-1.2.5-.5 1.2-1.1 1.9-1.7l1 .7h.1c.1 0 .1 0 .1-.1v-.1l-.4-1.1c.3-.2.6-.4.9-.5l1.5.8c.1 0 .1 0 .1-.1v-.1l-.7-1.1c.2-.1.4-.2.5-.3l2.1 1.4h.1c.1 0 .1 0 .1-.1v-.1l-.7-2c.7-.3 1.4-.5 2-.7.2.4.4 1 .5 1.4h-.8c-.1 0-.1 0-.1.1v.4c0 .1 0 .1.1.1h1.1c.1.1.1.2.2.3h-1.2c-.1 0-.1 0-.1.1v.4c0 .1 0 .1.1.1h1.6c1 1.4 2.2 2.6 3.9 3.6h.1c.2-.1.3-.2.4-.3l.3.4-.6 1v.1h.1l1.1-.5.5.6-1.1.8s-.1.1 0 .1l.1.1 1.5-.4 2 2.2H423.3c1.1-.1 1.7.5 1.8.6.1.1.1.2.2.2h-2c-4.4-2.3-9.2-4.5-14.3-4.9 0-.9.2-1.6.2-2.5.1.1.1.1 0 0zm6-7.7c.1 0 .1 0 0 0 .8-.2 1.7-.4 2.6-.4l.8 1.7.1.1s.1 0 .1-.1l.4-1.7c1 0 1.8.2 2.6.4h.1c.7-.5 1.1-1.3 1.2-1.9.1.9.1 2.2.1 2.6 0 .7 0 1.4-.2 2.1l-.9.4-.1.1s0 .1.1.1l.7.1c-.1.2-.1.4-.2.6l-.7.2-.1.1s0 .1.1.1l.5.2c-.1.3-.2.4-.3.6h-1.2c-.1 0-.1 0-.1.1v.4c0 .1 0 .1.1.1h1c-.1.1-.1.2-.2.3h-.8c-.1 0-.1 0-.1.1v.4c0 .1 0 .1.1.1h.4c-.8 1.1-1.8 2.1-3 2.8-1.2-.6-2.4-1.6-3.2-2.8h.3c.1 0 .1 0 .1-.1v-.4c0-.1 0-.1-.1-.1h-.6c-.1-.1-.1-.2-.2-.3h.8c.1 0 .1 0 .1-.1v-.4c0-.1 0-.1-.1-.1h-1.1c-.2-.4-.4-.7-.4-1.1l.4-.2s.1 0 .1-.1c0 0 0-.1-.1-.1l-.7-.3c-.1-.2-.1-.4-.2-.5l1-.1s.1 0 .1-.1c0 0 0-.1-.1-.1l-1.2-.6c-.3-1.4-.3-2.9 0-4.1.8 1 1.2 1.7 2 2zM402 287.7h-1.6c.4-.8 1.8-2.9 3.9-5.2.3.3.5.6.8 1-.8.3-1.6.8-2.1 1.4-.6.8-1.1 1.9-1 2.8z"/></g><g><path class="st10" d="M547.2 107.3v12.8h24.9v-12.8h-24.9zm6.7 10.9h-1.1v-9h1.1v9zm6.3 0h-1.1v-9h1.1v9zm6.3 0h-1.1v-9h1.1v9z"/></g><g><path class="st10" d="M502.1 119.4c-.2 0-.4 0-.5.2l-5.3 3.1c-.4.2-.5.5-.5 1v6.1c0 .4.2.8.5 1l1.4.8c.7.4.9.4 1.2.4 1 0 1.6-.6 1.6-1.7v-6c0-.1-.1-.2-.2-.2h-.7c-.1 0-.2.1-.2.2v6c0 .4-.4 1-1.2.5l-1.4-.9c-.1 0-.1-.1-.1-.2v-6.1c0-.1 0-.1.1-.2l5.3-3h.2l5.3 3c.1 0 .1.1.1.2v6.1c0 .1 0 .1-.1.2l-5.3 3h-.2l-1.3-.8h-.2c-.4.2-.4.3-.8.4-.1 0-.2.1.1.3l1.8 1.1c.2.1.4.2.5.2.2 0 .4-.1.5-.2l5.3-3c.4-.2.5-.5.5-1v-6.1c0-.4-.2-.8-.5-1l-5.3-3.1c-.2-.2-.4-.3-.6-.3z"/><path class="st10" d="M503.5 123.7c-1.5 0-2.4.6-2.4 1.7s.9 1.5 2.3 1.6c1.8.2 1.8.4 1.8.8 0 .6-.4.9-1.6.9-1.4 0-1.7-.4-1.8-1.1 0-.1-.1-.2-.2-.2h-.6c-.1 0-.2.1-.2.2 0 .9.4 1.9 2.8 1.9 1.7 0 2.6-.6 2.6-1.8 0-1.1-.8-1.4-2.4-1.7-1.7-.2-1.8-.4-1.8-.7 0-.4.2-.7 1.3-.7s1.5.3 1.7 1c0 .1.1.1.2.1h.7s.1 0 .1-.1l.1-.1c-.1-1.3-.9-1.8-2.6-1.8z"/></g><g class="st11"><path class="st2" d="M240.1 360.9c.9 0 1.8 0 2.6.4.9.5 1.3 1.3 1.3 2.5 0 2.4-1.9 2.6-1.9 2.6s2.6.3 2.6 3c0 1.1-.5 2.1-1.3 2.6-1 .7-2.3.7-2.9.7h-3.3v-11.9l2.9.1zm-2 5.1h2c.6 0 1.2 0 1.8-.4.5-.3 1.1-.9 1.1-1.9 0-.8-.3-1.5-1-1.9-.6-.4-1.2-.4-1.9-.4h-1.9v4.6zm0 5.9h2.3c.7 0 1.5 0 2.3-.5.5-.4 1-1.1 1-2 0-1-.4-1.7-1.2-2.1-.8-.4-1.7-.4-2.3-.4h-1.9l-.2 5zM252.6 372.7l-.3-1.5c-.2 1-.9 1.7-2.4 1.7-1.2 0-1.9-.5-2.4-1.1-.4-.6-.5-1.3-.5-2.6v-5h1v5c0 1.1.1 1.5.4 2 .4.5.9.8 1.8.8 2 0 2.2-1.7 2.2-2.6v-5.3h1v8.5l-.8.1zM260.6 365.3c-.1 0-1-.4-1.9-.4-1.1 0-1.7.5-1.7 1.3 0 2 4 1.5 4 4.3 0 1.7-1.3 2.4-2.9 2.4-1.2 0-2.1-.4-2.1-.4v-.8h.1s1.1.5 2.1.5c1.1 0 1.8-.5 1.8-1.5 0-2.2-4-1.7-4-4.3 0-1.3 1.1-2.2 2.7-2.2 1.1 0 1.8.4 1.8.4l.1.7zM264.5 361.6c0 .4-.3.7-.7.7-.4 0-.7-.4-.7-.7s.3-.7.7-.7c.5 0 .7.4.7.7zm-.2 2.7v8.5h-1v-8.5h1zM268.1 364.3l.3 1.5c.2-1.1 1-1.7 2.5-1.7 1.3 0 2 .5 2.5 1.1.4.7.5 1.5.5 2.6v5h-1v-5c0-.7 0-1.5-.4-2-.3-.4-.9-.8-1.8-.8-2 0-2.2 1.7-2.2 2.6v5.3h-1v-8.5l.6-.1zM282.2 372.5s-1 .4-2.3.4c-1.3 0-2.3-.4-2.9-1.1-.7-.7-1.1-1.9-1.1-3.3 0-2.8 1.3-4.4 3.5-4.4 1.2 0 2.1.5 2.6 1.5s.5 2.2.5 3.1H277c0 2.3 1 3.5 2.9 3.5 1.1 0 2.1-.4 2.1-.4h.1v.7zm-.6-4.6c0-2-.7-3.1-2.1-3.1-1.5 0-2.3 1.1-2.5 3.1h4.6zM289.3 365.3c-.1 0-1-.4-1.9-.4-1.1 0-1.7.5-1.7 1.3 0 2 4 1.5 4 4.3 0 1.7-1.3 2.4-2.9 2.4-1.2 0-2.1-.4-2.1-.4v-.8h.1s1.1.5 2.1.5c1.1 0 1.8-.5 1.8-1.5 0-2.2-4-1.7-4-4.3 0-1.3 1.1-2.2 2.7-2.2 1.1 0 1.8.4 1.8.4l.1.7zM295.9 365.3c-.1 0-1-.4-1.9-.4-1.1 0-1.7.5-1.7 1.3 0 2 4 1.5 4 4.3 0 1.7-1.3 2.4-2.9 2.4-1.2 0-2.1-.4-2.1-.4v-.8h.1s1.1.5 2.1.5c1.1 0 1.8-.5 1.8-1.5 0-2.2-4-1.7-4-4.3 0-1.3 1.1-2.2 2.7-2.2 1.1 0 1.8.4 1.8.4l.1.7z"/></g><g class="st11"><path class="st2" d="M679.9 360.9c1.1 0 2.6 0 3.9.7 1.5.9 2.5 2.6 2.5 5.3s-1 4.4-2.6 5.3c-1.2.7-2.6.7-3.7.7h-2.7V361l2.6-.1zm-1.8 11h1.8c1 0 2.1 0 3.3-.6 1.5-.9 2-2.6 2-4.6 0-2-.5-3.7-2-4.6-1.1-.6-2.3-.6-3.3-.6h-1.8v10.4zM694.2 372.5s-1 .4-2.3.4-2.3-.4-2.9-1.1c-.7-.7-1.1-1.9-1.1-3.3 0-2.8 1.3-4.4 3.5-4.4 1.2 0 2.1.5 2.6 1.5s.5 2.2.5 3.1H689c0 2.3 1 3.5 2.9 3.5 1.1 0 2.1-.4 2.1-.4h.1v.7zm-.5-4.6c0-2-.7-3.1-2.1-3.1-1.5 0-2.3 1.1-2.5 3.1h4.6zM697.4 364.3l2.6 7.3 2.7-7.3h1l-3.3 8.5h-.9l-3.3-8.5h1.2zM711.4 372.5s-1 .4-2.3.4c-1.3 0-2.3-.4-2.9-1.1-.7-.7-1.1-1.9-1.1-3.3 0-2.8 1.3-4.4 3.5-4.4 1.2 0 2.1.5 2.6 1.5s.5 2.2.5 3.1h-5.5c0 2.3 1 3.5 2.9 3.5 1.1 0 2.1-.4 2.1-.4h.1v.7zm-.6-4.6c0-2-.7-3.1-2.1-3.1-1.5 0-2.3 1.1-2.5 3.1h4.6zM715.3 360.4v12.3h-1v-12.3h1zM721.5 372.9c-2.3 0-3.7-1.6-3.7-4.4s1.3-4.5 3.7-4.5c2.3 0 3.7 1.6 3.7 4.4s-1.4 4.5-3.7 4.5zm2.6-4.4c0-2.5-.9-3.7-2.7-3.7s-2.7 1.2-2.7 3.7.9 3.7 2.7 3.7 2.7-1.2 2.7-3.7zM727.6 376v-11.7h.7l.3 1.6c.3-1.1 1.2-1.8 2.6-1.8 2.1 0 3.5 1.6 3.5 4.4s-1.4 4.5-3.6 4.5c-1.4 0-2.2-.6-2.6-1.7v4.7h-.9zm6.2-7.5c0-2.1-.7-3.7-2.6-3.7-1.8 0-2.6 1.5-2.6 3.7 0 2.1.8 3.7 2.6 3.7s2.6-1.6 2.6-3.7zM737.9 364.3l.3 1.5c.2-1.1.9-1.7 2.4-1.7s2.2.6 2.6 1.8c.4-1.1 1.1-1.8 2.6-1.8 1.3 0 1.9.5 2.3 1.1.4.6.5 1.3.5 2.6v5h-1v-5c0-1.1-.1-1.5-.4-2-.3-.4-.8-.8-1.7-.8-2 0-2.2 1.7-2.2 2.6v5.3h-1v-5c0-1.1-.1-1.5-.4-2-.3-.4-.8-.8-1.7-.8-1.9 0-2.2 1.7-2.2 2.6v5.3h-1v-8.5l.9-.2zM757.1 372.5s-1 .4-2.3.4-2.3-.4-2.9-1.1c-.7-.7-1.1-1.9-1.1-3.3 0-2.8 1.3-4.4 3.5-4.4 1.2 0 2.1.5 2.6 1.5s.5 2.2.5 3.1H752c0 2.3 1 3.5 2.9 3.5 1.1 0 2.1-.4 2.1-.4h.1v.7zm-.6-4.6c0-2-.7-3.1-2.1-3.1-1.5 0-2.3 1.1-2.5 3.1h4.6zM760.7 364.3l.3 1.5c.2-1.1 1-1.7 2.5-1.7 1.3 0 2 .5 2.5 1.1.4.7.5 1.5.5 2.6v5h-1v-5c0-.7 0-1.5-.4-2-.3-.4-.9-.8-1.8-.8-2 0-2.2 1.7-2.2 2.6v5.3h-1v-8.5l.6-.1zM773.5 372.7s-.5.2-1.3.2c-.9 0-1.6-.3-1.9-.8-.4-.5-.4-1.1-.4-2.1v-4.8h-1.7v-.8h1.7v-2.6l1-.4v2.8h2.6v.8h-2.6v4.8c0 .8 0 1.2.2 1.7.2.4.5.5 1.1.5.6 0 1.2-.3 1.2-.3h.1v1z"/></g><g class="st11"><path class="st2" d="M461.3 372.9c-3.3 0-5.1-2.1-5.1-6.1 0-4 1.8-6.3 5.2-6.3 3.3 0 5.1 2.1 5.1 6.1 0 4-1.9 6.3-5.2 6.3zm4.2-6.1c0-3.6-1.5-5.4-4.1-5.4s-4.1 1.8-4.1 5.4c0 3.6 1.5 5.4 4.1 5.4s4.1-1.8 4.1-5.4zM469 376v-11.7h.7l.3 1.6c.3-1.1 1.2-1.8 2.6-1.8 2.1 0 3.5 1.6 3.5 4.4s-1.4 4.5-3.6 4.5c-1.4 0-2.2-.6-2.6-1.7v4.7h-.9zm6.1-7.5c0-2.1-.7-3.7-2.6-3.7-1.8 0-2.6 1.5-2.6 3.7 0 2.1.8 3.7 2.6 3.7 1.9 0 2.6-1.6 2.6-3.7zM484.2 372.5s-1 .4-2.3.4c-1.3 0-2.3-.4-2.9-1.1-.7-.7-1.1-1.9-1.1-3.3 0-2.8 1.3-4.4 3.5-4.4 1.2 0 2.1.5 2.6 1.5s.5 2.2.5 3.1H479c0 2.3 1 3.5 2.9 3.5 1.1 0 2.1-.4 2.1-.4h.1v.7zm-.5-4.6c0-2-.7-3.1-2.1-3.1-1.5 0-2.3 1.1-2.5 3.1h4.6zM491 365.1s-.4-.1-.7-.1c-2 0-2.1 1.6-2.1 2.6v5.2h-1v-8.5h.7l.2 1.6c.4-1.3 1.4-1.7 2.6-1.7h.4l-.1.9zM492.8 364.5s1-.4 2.3-.4c1.1 0 2.1.3 2.6 1.1.4.6.4 1.6.4 2.1v3.4c0 .6 0 1.2.9 1.2.3 0 .5-.1.5-.1v.7s-.4.1-.9.1c-.9 0-1.5-.4-1.5-1.5-.3.9-1.2 1.6-2.6 1.6-1.6 0-2.6-1-2.6-2.4 0-1.5 1.1-2.6 4.2-2.6h1c0-1.1 0-1.8-.4-2.3-.4-.5-1-.8-1.8-.8-1.1 0-2.1.4-2.1.4h-.1l.1-.5zm2.1 7.6c.8 0 1.6-.4 2-1.1.4-.7.4-1.7.4-2.1v-.2h-.5c-1.2 0-3.6 0-3.6 1.8-.1.9.5 1.6 1.7 1.6zM505.5 372.7s-.5.2-1.3.2c-.9 0-1.6-.3-1.9-.8-.4-.5-.4-1.1-.4-2.1v-4.8h-1.7v-.8h1.7v-2.6l1-.4v2.8h2.6v.8h-2.6v4.8c0 .8 0 1.2.2 1.7.2.4.5.5 1.1.5.6 0 1.2-.3 1.2-.3h.1v1zM508.9 361.6c0 .4-.3.7-.7.7-.4 0-.7-.4-.7-.7s.3-.7.7-.7c.5 0 .7.4.7.7zm-.1 2.7v8.5h-1v-8.5h1zM514.9 372.9c-2.3 0-3.7-1.6-3.7-4.4s1.3-4.5 3.7-4.5c2.3 0 3.7 1.6 3.7 4.4s-1.3 4.5-3.7 4.5zm2.8-4.4c0-2.5-.9-3.7-2.7-3.7-1.8 0-2.7 1.2-2.7 3.7s.9 3.7 2.7 3.7c1.8 0 2.7-1.2 2.7-3.7zM521.9 364.3l.3 1.5c.2-1.1 1-1.7 2.5-1.7 1.3 0 2 .5 2.5 1.1.4.7.5 1.5.5 2.6v5h-1v-5c0-.7 0-1.5-.4-2-.3-.4-.9-.8-1.8-.8-2 0-2.2 1.7-2.2 2.6v5.3h-1v-8.5l.6-.1zM534.7 365.3c-.1 0-1-.4-1.9-.4-1.1 0-1.7.5-1.7 1.3 0 2 4 1.5 4 4.3 0 1.7-1.3 2.4-2.9 2.4-1.2 0-2.1-.4-2.1-.4v-.8h.1s1.1.5 2.1.5c1.1 0 1.8-.5 1.8-1.5 0-2.2-4-1.7-4-4.3 0-1.3 1.1-2.2 2.7-2.2 1.1 0 1.8.4 1.8.4l.1.7z"/></g><g><path class="st2" d="M684.9 194.1l.1-.9-14.7 10.8 1.1.6c.8.4 1.5 1.1 1.9 1.8l12.1-8.9c-.5-.9-.8-2.1-.5-3.4zm-5 6.7c-.5.4-1.2.3-1.6-.3-.4-.5-.3-1.2.3-1.6.5-.4 1.2-.3 1.6.3.3.6.2 1.3-.3 1.6z"/><ellipse transform="rotate(-33.105 673.818 195.2)" class="st2" cx="673.8" cy="195.2" rx="1" ry="1"/><path class="st2" d="M674.2 196c-.4.3-1.1.2-1.4-.3-.3-.4-.2-1.1.3-1.4.4-.3 1.1-.2 1.4.3.4.5.3 1.1-.3 1.4zm-.9-1.6c-.4.3-.5.8-.3 1.2.3.4.8.5 1.2.3s.5-.8.3-1.2c-.3-.5-.9-.6-1.2-.3zM678.5 192.1c-.4.3-1.1.2-1.4-.3-.3-.4-.2-1.1.3-1.4.4-.3 1.1-.2 1.4.3.3.5.1 1.1-.3 1.4zm-1.1-1.6c-.4.3-.5.8-.3 1.2s.8.5 1.2.3c.4-.3.5-.8.3-1.2-.2-.4-.7-.5-1.2-.3z"/><path transform="rotate(-1.025 673.506 190.852) scale(.99996)" class="st2" d="M673.3 190.9h.4v.1h-.4z"/><path class="st2" d="M673.5 191.1l.9-.2-.9-.3z"/><path transform="rotate(-50.913 671.28 193.438)" class="st2" d="M671.2 193.2h.1v.5h-.1z"/><path class="st2" d="M671.3 193.6l.8.5-.6-.8z"/><path transform="rotate(-20.12 670.618 195.364)" class="st2" d="M670.6 195h.1v.8h-.1z"/><path class="st2" d="M670.5 195.7l.5.8-.1-1zM673.1 200.2c-.4.3-1.1.2-1.4-.3s-.2-1.1.3-1.4c.4-.3 1.1-.2 1.4.3.3.4.1 1.1-.3 1.4zm-1.1-1.6c-.4.3-.5.8-.3 1.2.3.4.8.5 1.2.3.4-.3.5-.8.3-1.2-.2-.4-.7-.6-1.2-.3z"/><path class="st2" d="M677.2 178.7l8.3 11.2c.2-.5.4-1.1.7-1.6l-8.7-11.7c-.4-.4-.8-.6-1.3-.6-.4 0-.6.1-1 .4l-17.7 13c-.7.5-.9 1.5-.4 2.2l7.9 10.7h.4c.5 0 1.1.1 1.6.3l-7.9-10.7 18.1-13.2zm-11.6 6.4l3.5-2.6c.1 0 .1-.1.2-.1s.2 0 .3.1c.1.1.1.3-.1.4l-3.5 2.6c-.1 0-.1.1-.2.1s-.2 0-.3-.1c0-.1 0-.3.1-.4z"/><path class="st2" d="M672.6 199.4c0-.1 3.7-3.7 5.3-8.2h.1c-1.6 4.6-5.3 8.2-5.4 8.2zM672.6 199.5c-3.3-1.3-7.8-.1-7.8-.1v-.1c-.1 0 4.5-1.2 7.8.2zM672.6 199.5c-4.5.6-7.9 0-7.9 0v-.1c-.1 0 3.4.6 7.9.1zM664.7 199.3c-.9-1.2-1.3-5.8-1.3-6h.1c0 .1.4 4.8 1.2 6z"/><path class="st2" d="M669.9 191.5c-4.6 2.2-6.3 1.8-6.4 1.8v-.1c0 .1 1.8.4 6.4-1.7zM678 191.1c-5.6-.7-8.1.4-8.2.4v-.1s2.6-1 8.2-.3z"/><path class="st2" d="M673.7 195.1s-3.3-1.8-3.9-3.6h.1c.6 1.8 3.8 3.5 3.8 3.6zM672.6 199.4c-2.4-3.3-2.9-7.8-2.9-7.8h.1c0 .1.4 4.6 2.8 7.8z"/><ellipse transform="rotate(-33.105 664.652 199.42)" class="st2" cx="664.7" cy="199.4" rx="1" ry="1"/><ellipse transform="rotate(-33.105 677.944 191.32)" class="st2" cx="678" cy="191.3" rx="1" ry="1"/><ellipse transform="rotate(-33.105 663.502 193.35)" class="st2" cx="663.5" cy="193.4" rx="1" ry="1"/><path class="st2" d="M664 194.1c-.4.3-1.1.2-1.4-.3-.3-.4-.2-1.1.3-1.4.4-.4 1.1-.2 1.4.3.3.5.2 1.2-.3 1.4zm-1-1.5c-.4.3-.5.8-.3 1.2.3.4.8.5 1.2.3.4-.3.5-.8.3-1.2-.3-.4-.8-.6-1.2-.3z"/><ellipse transform="rotate(-33.105 677.245 184.362)" class="st2" cx="677.3" cy="184.4" rx="1" ry="1"/><path class="st2" d="M669.9 191.2c1-3 .8-6.1.8-6.1h.1c.1.1.3 3.2-.9 6.1z"/><ellipse transform="rotate(-12.82 670.723 184.715)" class="st2" cx="670.7" cy="184.7" rx="1" ry="1"/><path class="st2" d="M671 185.7c-.5.1-1.1-.2-1.1-.7-.1-.5.2-1.1.7-1.1s1.1.2 1.1.7c.2.4-.2.9-.7 1.1zm-.5-1.9c-.5.1-.8.6-.7 1.1.1.5.6.8 1.1.7.5-.1.8-.6.7-1.1-.1-.5-.6-.8-1.1-.7zM670.9 188.1l-.1-.8-.3.8z"/><path transform="rotate(-19.615 666.805 192.686)" class="st2" d="M666.6 192.6h.4v.1h-.4z"/><path class="st2" d="M666.7 192.5l-.8.6.9-.1zM670.5 192.7c-.6.4-1.5.3-1.8-.4-.4-.6-.3-1.5.4-1.8.7-.4 1.5-.3 1.8.4.4.6.3 1.4-.4 1.8zm-1.5-2.2c-.6.4-.8 1.1-.4 1.8.4.6 1.1.8 1.8.4.6-.4.8-1.1.4-1.8-.3-.5-1.1-.7-1.8-.4z"/><ellipse transform="rotate(-33.105 669.758 191.585)" class="st2" cx="669.8" cy="191.6" rx="1" ry="1"/><path class="st2" d="M674 202.9c-.1-.4-.2-.7-.3-1-.4-1.4-1-2.6-1-2.6h-.1s.5 1.1 1 2.6c0 .4.2.8.4 1z"/><path class="st2" d="M677.2 200.8c-1.2-.7-3.1-1.4-4.7-1.3v.1c1.7-.1 3.4.5 4.7 1.2z"/><ellipse transform="rotate(-33.105 672.576 199.336)" class="st2" cx="672.6" cy="199.3" rx="1" ry="1"/><path class="st2" d="M683.7 186.7c-2.2 2.9-4.8 4.1-4.8 4.1v-.1c-.2.1 2.5-1.1 4.8-4z"/><ellipse transform="rotate(-4.164 683.802 186.955) scale(1.00004)" class="st2" cx="683.8" cy="186.9" rx="1" ry="1"/><path class="st2" d="M677.3 184.5c1.2 3.8.6 6.9.6 7h-.1c.1-.2.7-3.3-.5-7z"/><g><path class="st5" d="M701 151.7c0-3.8-1.4-7.3-4.1-10-2.6-2.6-6.2-4.1-9.9-4.1-7.7 0-14 6.3-14 14.1v13.8h5.3c-1.5-2.3-2.3-5-2.3-7.8 0-7.1 4.9-12.9 10.9-12.9h.4l-.1.4c-.5 5.2 2.4 6.2 5.4 7.3 2.5.9 5.1 1.8 5.1 5.2 0 2.9-.8 5.6-2.3 7.9h5.3l.3-13.9zM671.1 205.4s-1.8-1-2.9-1.6c-.8-.4-1.6-.6-2.4-.6-1.6 0-3.1.8-4.1 2.5-1.4 2.5-.4 5.1 1.8 6.4 0 0 1.8 1 2.9 1.6.8.4 1.6.6 2.4.6 1.6 0 3.1-.8 4.1-2.5 1.3-2.4.4-5.1-1.8-6.4z"/><path class="st5" d="M692.7 153.4c-3-1.1-6.4-2.3-6-7.7-5.4.3-9.6 5.6-9.6 12.1 0 2.7.8 5.4 2.2 7.5 2.1 1.9 4.8 3.1 7.8 3.1 3.2 0 6.1-1.3 8.3-3.6 1.2-2 1.8-4.5 1.8-7-.1-2.9-2.2-3.6-4.5-4.4zm-10.8 5.3c-1.1 0-1.9-.9-1.9-1.9 0-1.1.9-1.9 1.9-1.9s1.9.9 1.9 1.9c0 1.1-.8 1.9-1.9 1.9zm5.1 7.6c-2.9 0-5.2-1.4-5.2-3.2h10.4c0 1.7-2.4 3.2-5.2 3.2zm4.5-7.6c-1.1 0-1.9-.9-1.9-1.9 0-1.1.9-1.9 1.9-1.9s1.9.9 1.9 1.9c0 1.1-.8 1.9-1.9 1.9zM695.5 192.4c.4-2.6-1.1-4.9-4-5.4-.3 0-.5-.1-.8-.1-2.4 0-4.2 1.7-4.6 4 0 0-.3 1.9-.5 3.3-.4 2.6 1.1 4.9 4 5.4.3 0 .5.1.8.1 2.4 0 4.2-1.7 4.6-4-.1-.1.3-2 .5-3.3z"/><path class="st5" d="M702.5 186.2l-1.1-5.1c-1.2-5.5-6.1-9.4-11.8-9.4h-4.5c-3.3 0-6.3 1.3-8.5 3.5.7 0 1.4.4 1.8 1l8.5 11.5c1-1.1 2.4-1.7 3.9-1.7.4 0 .6 0 1 .1 1.5.3 2.8 1 3.6 2.2.9 1.1 1.2 2.6 1 4.1l-.5 3.3c-.4 2.7-2.6 4.7-5.4 4.7-.4 0-.6 0-1-.1-1.5-.3-2.7-1-3.6-2.1l-12.1 8.9c.1.3.2.4.3.7.4 1.4.3 2.9-.5 4.3s-2 2.4-3.4 2.7l-2.4 24.7h4.1v19.6c0 4.7 2.9 8.1 6.9 8.1 3.9 0 6.9-3.4 6.9-8.1v-19.6h3.5v19.6c0 4.7 2.9 8.1 6.9 8.1 3.2 0 5.7-2.3 6.5-5.6v-60.4c-.1-5.7-.1-13.2-.1-15z"/></g></g><g><path class="st2" d="M721.9 186.7h3.3v-1.6c-1.1-.2-2.2-.4-3.3-.9v2.5zM757.9 203.2h-4.4c.4.8.5 1.6.6 2.5h2.8c.2-1 .6-1.8 1-2.5zM756.9 208.2c-.1-.5-.1-1-.1-1.5h-2.6c-.1.5-.2 1.1-.4 1.7-.2.4-.4.8-.6 1.1h4.1c-.3-.3-.4-.7-.4-1.3zM792.1 206.8h-17.3c0 1-.3 1.9-.7 2.8h18c.3 0 .4-.2.4-.4v-1.9c-.1-.3-.2-.5-.4-.5z"/><path class="st5" d="M743.6 162.5c-.5 0-.8-.4-.8-.9s.3-.9.8-.9.8.4.8.9c0 .6-.2.9-.8.9zm.6-.9c0-.4-.2-.6-.4-.6-.4 0-.4.3-.4.6 0 .4.2.6.4.6.2.1.4-.1.4-.6zM746.1 160.5s-.3-.1-.5-.1-.4.2-.4.4c0 .5 1.1.4 1.1 1.1 0 .4-.4.6-.8.6s-.5-.1-.5-.1v-.3s.3.2.5.2.5-.2.5-.4c0-.5-1.1-.4-1.1-1.1 0-.4.3-.6.7-.6.3 0 .5.1.5.1v.2zM747.8 162.4s-.2.1-.5.1-.5-.1-.6-.2c-.2-.2-.2-.4-.2-.6 0-.5.3-.9.7-.9.3 0 .4.1.5.3.1.2.1.4.1.6h-1.1c0 .4.2.5.5.5s.4-.1.4-.1l.2.3zm-.2-.8c0-.4-.1-.5-.4-.5s-.4.2-.4.5h.8zM749.2 161.1h-.2c-.4 0-.4.3-.4.4v1h-.3v-1.7h.3l.1.4c.1-.3.3-.4.5-.4h.1v.3h-.1zM749.7 160.8l.4 1.3.4-1.3h.3l-.6 1.7h-.2l-.6-1.7h.3zM751.7 160.3c0 .1-.1.2-.2.2s-.2-.1-.2-.2.1-.2.2-.2c.2 0 .2.1.2.2zm0 .5v1.7h-.3v-1.7h.3zM753.3 162.4s-.2.1-.4.1c-.5 0-.8-.4-.8-.9s.3-.9.8-.9c.2 0 .4.1.4.1v.3s-.2-.1-.4-.1c-.4 0-.5.3-.5.6s.2.6.5.6c.2 0 .4-.1.4-.1v.3zM754.9 162.4s-.2.1-.5.1-.5-.1-.6-.2c-.2-.2-.2-.4-.2-.6 0-.5.3-.9.7-.9.3 0 .4.1.5.3.1.2.1.4.1.6h-1.1c0 .4.2.5.5.5s.4-.1.4-.1l.2.3zm-.2-.8c0-.4-.1-.5-.4-.5-.3 0-.4.2-.4.5h.8zM755.7 162.3c0 .1-.1.2-.2.2s-.2-.1-.2-.2.1-.2.2-.2.2.1.2.2zM756.2 163.1v-2.3h.3l.1.3c.1-.2.3-.4.5-.4.4 0 .7.4.7.9s-.3.9-.7.9c-.3 0-.4-.1-.5-.3v.9h-.4zm1.2-1.5c0-.4-.1-.6-.4-.6s-.4.3-.4.6.1.6.4.6.4-.2.4-.6zM759 161.1h-.2c-.4 0-.4.3-.4.4v1h-.3v-1.7h.3l.1.4c.1-.3.3-.4.5-.4h.1v.3h-.1zM759.9 162.5c-.5 0-.8-.4-.8-.9s.3-.9.8-.9.8.4.8.9c0 .6-.2.9-.8.9zm.5-.9c0-.4-.2-.6-.4-.6-.4 0-.4.3-.4.6 0 .4.2.6.4.6.3.1.4-.1.4-.6zM762.1 162.5h-.3c-.2 0-.4-.1-.4-.2-.1-.1-.1-.3-.1-.4v-.9h-.4v-.3h.4v-.4l.3-.1v.5h.5v.3h-.5v1.2c0 .1.1.1.2.1s.3-.1.3-.1v.3zM763.1 162.5c-.5 0-.8-.4-.8-.9s.3-.9.8-.9.8.4.8.9c0 .6-.3.9-.8.9zm.4-.9c0-.4-.2-.6-.4-.6-.4 0-.4.3-.4.6 0 .4.2.6.4.6.3.1.4-.1.4-.6zM765.2 162.5h-.3c-.2 0-.4-.1-.4-.2-.1-.1-.1-.3-.1-.4v-.9h-.4v-.3h.4v-.4l.3-.1v.5h.5v.3h-.5v1.2c0 .1.1.1.2.1s.3-.1.3-.1v.3zM766.5 162.4c-.2.4-.3.6-.7.6h-.2v-.3h.2c.2 0 .3-.2.4-.4l-.7-1.6h.4l.4 1.3.4-1.3h.3l-.5 1.7zM767.4 163.1v-2.3h.3l.1.3c.1-.2.3-.4.5-.4.4 0 .7.4.7.9s-.3.9-.7.9c-.3 0-.4-.1-.5-.3v.9h-.4zm1.3-1.5c0-.4-.1-.6-.4-.6s-.4.3-.4.6.1.6.4.6c.2.1.4-.2.4-.6zM770.6 162.4s-.2.1-.5.1-.5-.1-.6-.2c-.2-.2-.2-.4-.2-.6 0-.5.3-.9.7-.9.3 0 .4.1.5.3.1.2.1.4.1.6h-1.1c0 .4.2.5.5.5s.4-.1.4-.1l.2.3zm-.2-.8c0-.4-.1-.5-.4-.5s-.4.2-.4.5h.8zM771.5 162.3c0 .1-.1.2-.2.2s-.2-.1-.2-.2.1-.2.2-.2c.1.1.2.1.2.2zM771.6 162.8v-.2h1.2v.2h-1.2zM773.3 160.8l.1.3c0-.2.2-.4.4-.4.3 0 .4.2.5.4.1-.3.3-.4.5-.4s.4.1.4.2c.1.2.1.3.1.5v1h-.3v-1c0-.2 0-.3-.1-.4-.1-.1-.2-.2-.3-.2-.4 0-.4.3-.4.4v1.1h-.3v-1c0-.2 0-.3-.1-.4-.1-.1-.2-.2-.3-.2-.4 0-.4.3-.4.4v1.1h-.3l.5-1.4zM776.3 160.3c0 .1-.1.2-.2.2s-.2-.1-.2-.2.1-.2.2-.2.2.1.2.2zm-.1.5v1.7h-.2v-1.7h.2zM777.9 162.4s-.2.1-.4.1c-.5 0-.8-.4-.8-.9s.3-.9.8-.9c.2 0 .4.1.4.1v.3s-.2-.1-.4-.1c-.4 0-.5.3-.5.6s.2.6.5.6c.2 0 .4-.1.4-.1v.3zM779.1 161.1h-.2c-.4 0-.4.3-.4.4v1h-.3v-1.7h.3l.1.4c.1-.3.3-.4.5-.4h.1v.3h-.1zM780.1 162.5c-.5 0-.8-.4-.8-.9s.3-.9.8-.9.8.4.8.9c0 .6-.3.9-.8.9zm.5-.9c0-.4-.2-.6-.4-.6-.4 0-.4.3-.4.6 0 .4.2.6.4.6.3.1.4-.1.4-.6zM782.7 160.1v2.4h-.3l-.1-.3c-.1.2-.3.4-.5.4-.4 0-.7-.4-.7-.9s.3-.9.7-.9c.3 0 .4.1.5.3v-1h.4zm-1.1 1.5c0 .4.1.6.4.6s.4-.3.4-.6-.1-.6-.4-.6c-.3 0-.4.3-.4.6zM784.5 162.4s-.2.1-.5.1-.5-.1-.6-.2c-.2-.2-.2-.4-.2-.6 0-.5.3-.9.7-.9.3 0 .4.1.5.3.1.2.1.4.1.6h-1.1c0 .4.2.5.5.5s.4-.1.4-.1l.2.3zm-.2-.8c0-.4-.1-.5-.4-.5s-.4.2-.4.5h.8zM785.3 160.8l.1.3c0-.2.2-.4.4-.4.3 0 .4.2.5.4.1-.3.3-.4.5-.4.3 0 .4.1.4.2.1.2.1.3.1.5v1h-.3v-1c0-.2 0-.3-.1-.4-.1-.1-.2-.2-.3-.2-.4 0-.4.3-.4.4v1.1h-.3v-1c0-.2 0-.3-.1-.4-.1-.1-.2-.2-.3-.2-.4 0-.4.3-.4.4v1.1h-.3l.5-1.4zM788.6 162.5c-.5 0-.8-.4-.8-.9s.3-.9.8-.9.8.4.8.9c0 .6-.3.9-.8.9zm.4-.9c0-.4-.2-.6-.4-.6-.4 0-.4.3-.4.6 0 .4.2.6.4.6.3.1.4-.1.4-.6zM790.8 161.5v-.2h1.4v.2h-1.4zm0 .5v-.2h1.4v.2h-1.4zM743.1 164.5l.4 1.3.4-1.3h.3l-.6 1.7h-.3l-.6-1.7h.4zM745.7 166.2h-.3c-.2 0-.4-.1-.4-.2-.1-.1-.1-.3-.1-.4v-.9h-.4v-.3h.4v-.4l.3-.1v.5h.5v.3h-.5v1.2c0 .1.1.1.2.1s.3-.1.3-.1v.3zM745.9 166.7s.4-.5.4-1.4c0-1-.4-1.4-.4-1.4h.3s.5.5.5 1.4c0 .9-.5 1.4-.5 1.4h-.3zM748.8 164c-.2 0-.4 0-.4.3v.6c0 .1 0 .3-.3.4.3.1.3.2.3.4v.6c0 .3.2.3.4.3v.3c-.2 0-.4 0-.5-.1-.1-.1-.1-.3-.1-.4v-.6c0-.2-.1-.2-.3-.2v-.4c.2 0 .3 0 .3-.2v-.6c0-.1 0-.3.1-.4.2-.1.4-.1.5-.1v.1zM744.6 169.9h-.3c-.2 0-.4-.1-.4-.2-.1-.1-.1-.3-.1-.4v-.9h-.4v-.3h.4v-.4l.3-.1v.5h.5v.3h-.5v1.2c0 .1.1.1.2.1s.3-.1.3-.1v.3zM745.9 168.9v-.3h1.4v.2l-1.4.1zm0 .5v-.2h1.4v.2h-1.4zM750.1 169.8s-.2.1-.5.1-.5-.1-.6-.2c-.2-.2-.2-.4-.2-.6 0-.5.3-.9.7-.9.3 0 .4.1.5.3.1.2.1.4.1.6H749c0 .4.2.5.5.5s.4-.1.4-.1l.2.3zm-.2-.8c0-.4-.1-.5-.4-.5-.3 0-.4.2-.4.5h.8zM750.8 168.2l.4 1.3.4-1.3h.3l-.6 1.7h-.3l-.6-1.7h.4zM753.3 169.9h-.3c-.2 0-.4-.1-.4-.2-.1-.1-.1-.3-.1-.4v-.9h-.4v-.3h.4v-.4l.3-.1v.5h.5v.3h-.5v1.2c0 .1.1.1.2.1s.3-.1.3-.1v.3zM754 169.7c0 .1-.1.2-.2.2s-.2-.1-.2-.2.1-.2.2-.2c.2.1.2.2.2.2zM755.3 169.9h-.3c-.2 0-.4-.1-.4-.2-.1-.1-.1-.3-.1-.4v-.9h-.4v-.3h.4v-.4l.3-.1v.5h.5v.3h-.5v1.2c0 .1.1.1.2.1s.3-.1.3-.1v.3zM755.8 168.2s.2-.1.5-.1.4.1.5.2c.1.1.1.3.1.4v.6c0 .1 0 .3.2.3h.1v.2h-.2c-.2 0-.4-.1-.4-.3-.1.2-.3.4-.5.4-.4 0-.5-.2-.5-.5s.3-.5.8-.5h.2c0-.2 0-.3-.1-.4-.1-.1-.2-.2-.4-.2-.3 0-.4.1-.4.1l.1-.2zm.4 1.5c.2 0 .3-.1.4-.2.1-.1.1-.3.1-.4h-.1c-.2 0-.6 0-.6.3-.1.2 0 .3.2.3zM758.4 168.5h-.2c-.4 0-.4.3-.4.4v1h-.3v-1.7h.3l.1.4c.1-.3.3-.4.5-.4h.1v.3h-.1zM759.2 169.2h-.3c-.1 0-.2.1-.2.2 0 .2.2.2.3.2h.4c.2 0 .6 0 .6.4s-.3.5-.9.5c-.5 0-.7-.2-.7-.4s.4-.4.4-.4-.2-.1-.2-.3c0-.2.2-.3.3-.3-.2-.1-.3-.3-.3-.4 0-.4.3-.5.6-.5.2 0 .4.1.4.1.1-.2.3-.2.4-.2v.3H759.7c.1.1.1.2.1.4.1.2-.1.4-.6.4zm-.3.6s-.2.1-.2.3.2.3.4.3c.4 0 .5-.1.5-.3s-.3-.2-.4-.2l-.3-.1zm.7-1.1c0-.2-.1-.4-.4-.4-.2 0-.4.1-.4.4 0 .2.1.4.4.4.3-.1.4-.1.4-.4zM761.6 169.8s-.2.1-.5.1-.5-.1-.6-.2c-.2-.2-.2-.4-.2-.6 0-.5.3-.9.7-.9.3 0 .4.1.5.3.1.2.1.4.1.6h-1.1c0 .4.2.5.5.5s.4-.1.4-.1l.2.3zm-.2-.8c0-.4-.1-.5-.4-.5s-.4.2-.4.5h.8zM763 169.9h-.3c-.2 0-.4-.1-.4-.2-.1-.1-.1-.3-.1-.4v-.9h-.2v-.3h.4v-.4l.3-.1v.5h.5v.3h-.5v1.2c0 .1.1.1.2.1s.3-.1.3-.1v.3zM763.7 169.6l-.3.8h-.2l.2-.8h.3zm.1-1.2c0 .1-.1.2-.2.2s-.2-.1-.2-.2.1-.2.2-.2.2.1.2.2zM745.3 172.2h-.2c-.4 0-.4.3-.4.4v1h-.3v-1.7h.3l.1.4c.1-.3.3-.4.5-.4h.1v.3h-.1zM746.3 173.6c-.5 0-.8-.4-.8-.9s.3-.9.8-.9.8.4.8.9c0 .7-.4.9-.8.9zm.4-.9c0-.4-.2-.6-.4-.6-.4 0-.4.3-.4.6 0 .4.2.6.4.6.3.1.4-.1.4-.6zM747.5 174.2v-2.3h.3l.1.3c.1-.2.3-.4.5-.4.4 0 .7.4.7.9s-.3.9-.7.9c-.3 0-.4-.1-.5-.3v.9h-.4zm1.2-1.5c0-.4-.1-.6-.4-.6s-.4.3-.4.6.1.6.4.6c.3.1.4-.2.4-.6zM749.5 171.9s.2-.1.5-.1.4.1.5.2.1.3.1.4v.6c0 .1 0 .3.2.3h.1v.2h-.2c-.2 0-.4-.1-.4-.3-.1.2-.3.4-.5.4-.4 0-.5-.2-.5-.5 0-.4.3-.5.8-.5h.2c0-.2 0-.3-.1-.4-.1-.1-.2-.2-.4-.2-.3 0-.4.1-.4.1l.1-.2zm.4 1.5c.2 0 .3-.1.4-.2.1-.1.1-.3.1-.4h-.1c-.2 0-.6 0-.6.3-.1.2 0 .3.2.3zM751.8 173h-.3c-.1 0-.2.1-.2.2 0 .2.2.2.3.2h.4c.2 0 .6 0 .6.4s-.3.5-.9.5c-.5 0-.7-.2-.7-.4s.4-.4.4-.4-.2-.1-.2-.3.2-.3.3-.3c-.2-.1-.3-.3-.3-.4 0-.4.3-.5.6-.5.2 0 .4.1.4.1.1-.2.3-.2.4-.2v.3H752.3c.1.1.1.2.1.4.1.1-.2.4-.6.4zm-.3.5s-.2.1-.2.3.2.3.4.3c.4 0 .5-.1.5-.3s-.3-.2-.4-.2l-.3-.1zm.6-1.1c0-.2-.1-.4-.4-.4-.2 0-.4.1-.4.4 0 .2.1.4.4.4.3-.1.4-.2.4-.4zM753 171.9s.2-.1.5-.1.4.1.5.2c.1.1.1.3.1.4v.6c0 .1 0 .3.2.3h.1v.2h-.2c-.2 0-.4-.1-.4-.3-.1.2-.3.4-.5.4-.4 0-.5-.2-.5-.5 0-.4.3-.5.8-.5h.2c0-.2 0-.3-.1-.4-.1-.1-.2-.2-.4-.2-.3 0-.4.1-.4.1l.1-.2zm.4 1.5c.2 0 .3-.1.4-.2.1-.1.1-.3.1-.4h-.1c-.2 0-.6 0-.6.3 0 .2 0 .3.2.3zM755.6 173.6h-.3c-.2 0-.4-.1-.4-.2-.1-.1-.1-.3-.1-.4v-.9h-.4v-.3h.4v-.4l.3-.1v.5h.5v.3h-.5v1.2c0 .1.1.1.2.1s.3-.1.3-.1v.3zM756.3 171.4c0 .1-.1.2-.2.2s-.2-.1-.2-.2.1-.2.2-.2.2.1.2.2zm0 .5v1.7h-.3v-1.7h.3zM757.6 173.6c-.5 0-.8-.4-.8-.9s.3-.9.8-.9.8.4.8.9c0 .7-.4.9-.8.9zm.4-.9c0-.4-.2-.6-.4-.6-.4 0-.4.3-.4.6 0 .4.2.6.4.6.2.1.4-.1.4-.6zM759 171.9l.1.3c.1-.2.2-.4.5-.4s.4.1.4.2c.1.2.1.4.1.5v1h-.3v-1c0-.1 0-.3-.1-.4-.1-.1-.2-.2-.4-.2-.4 0-.4.3-.4.4v1.1h-.3v-1.7l.4.2zM761.3 171.2s-.4.5-.4 1.4c0 1 .4 1.4.4 1.4h-.2s-.5-.5-.5-1.4c0-.9.5-1.4.5-1.4h.2zM761.6 174.1s.4-.5.4-1.4-.4-1.4-.4-1.4h.3s.5.5.5 1.4-.5 1.4-.5 1.4h-.3zM763.1 173.3l-.3.8h-.2l.2-.8h.3zm0-1.2c0 .1-.1.2-.2.2s-.2-.1-.2-.2.1-.2.2-.2.2.1.2.2zM743.7 177.2s-.2.1-.5.1-.5-.1-.6-.2c-.2-.2-.2-.4-.2-.6 0-.5.3-.9.7-.9.3 0 .4.1.5.3.1.2.1.4.1.6h-1.1c0 .4.2.5.5.5s.4-.1.4-.1l.2.3zm-.1-.9c0-.4-.1-.5-.4-.5-.3 0-.4.2-.4.5h.8zM744.5 175.6l.1.3c.1-.2.2-.4.5-.4s.4.1.4.2c.1.2.1.4.1.5v1h-.3v-1c0-.1 0-.3-.1-.4-.1-.1-.2-.2-.4-.2-.4 0-.4.3-.4.4v1.1h-.3v-1.6h.4zM747.1 177.3h-.3c-.2 0-.4-.1-.4-.2-.1-.1-.1-.3-.1-.4v-.9h-.4v-.2h.4v-.4l.3-.1v.5h.5v.3h-.5v1.2c0 .1.1.1.2.1s.3-.1.3-.1v.2zM748.1 174.9c.3 0 .5 0 .8.2.3.2.4.4.4 1 0 .5-.2.9-.5 1.1-.3.2-.5.2-.8.2h-.6V175l.7-.1zm-.2 2.2h.4c.2 0 .4 0 .5-.1.3-.2.4-.4.4-.8s-.1-.7-.4-.8c-.2-.1-.4-.1-.5-.1h-.4v1.8zM751 177.2s-.2.1-.5.1-.5-.1-.6-.2c-.2-.2-.2-.4-.2-.6 0-.5.3-.9.7-.9.3 0 .4.1.5.3.1.2.1.4.1.6h-1c0 .4.2.5.5.5s.4-.1.4-.1l.1.3zm-.1-.9c0-.4-.1-.5-.4-.5s-.4.2-.4.5h.8zM752 175.9v1.4h-.3v-1.4h-.4v-.3h.4v-.1c0-.2 0-.3.1-.4.1-.1.2-.2.4-.2h.3v.3h-.2c-.1 0-.2.1-.2.1v.4h.5v.3l-.6-.1zM752.8 175.6s.2-.1.5-.1.4.1.5.2c.1.1.1.3.1.4v.6c0 .1 0 .3.2.3h.1v.2h-.2c-.2 0-.4-.1-.4-.3-.1.2-.3.4-.5.4-.4 0-.5-.2-.5-.5 0-.4.3-.5.8-.5h.2c0-.2 0-.3-.1-.4-.1-.1-.2-.2-.4-.2-.3 0-.4.1-.4.1l.1-.2zm.4 1.5c.2 0 .3-.1.4-.2.1-.1.1-.3.1-.4h-.1c-.2 0-.6 0-.6.3 0 .2.1.3.2.3zM755.6 177.3l-.1-.3c0 .2-.2.4-.4.4-.3 0-.4-.1-.4-.2-.1-.2-.1-.3-.1-.5v-1.1h.3v1c0 .2 0 .3.1.4.1.1.2.2.3.2.4 0 .4-.3.4-.4v-1.1h.3v1.7h-.4zM756.7 174.9v2.4h-.3v-2.4h.3zM758.2 177.3h-.3c-.2 0-.4-.1-.4-.2-.1-.1-.1-.3-.1-.4v-.9h-.4v-.2h.4v-.4l.3-.1v.5h.5v.3h-.5v1.2c0 .1.1.1.2.1s.3-.1.3-.1v.2zM759.2 174.9s-.4.5-.4 1.4c0 .9.4 1.4.4 1.4h-.2s-.5-.5-.5-1.4c0-.9.5-1.4.5-1.4h.2zM759.6 177.8s.4-.5.4-1.4c0-1-.4-1.4-.4-1.4h.3s.5.5.5 1.4c0 .9-.5 1.4-.5 1.4h-.3zM761.1 177l-.3.8h-.2l.2-.8h.3zm0-1.2c0 .1-.1.2-.2.2s-.2-.1-.2-.2.1-.2.2-.2.2.1.2.2zM741.4 179.3l.1.3c.1-.2.2-.4.5-.4s.4.1.4.2c.1.2.1.4.1.5v1h-.3v-.9c0-.1 0-.3-.1-.4-.1-.1-.2-.2-.4-.2-.4 0-.4.3-.4.4v1.1h-.3v-1.7l.4.1zM744.4 178.6v2.4h-.3l-.1-.3c-.1.2-.3.4-.5.4-.4 0-.7-.4-.7-.9s.3-.9.7-.9c.3 0 .4.1.5.3v-1h.4zm-1.1 1.5c0 .4.1.6.4.6s.4-.3.4-.6c0-.4-.1-.6-.4-.6-.3 0-.4.3-.4.6zM745.7 181c-.5 0-.8-.4-.8-.9s.3-.9.8-.9.8.4.8.9c0 .7-.3.9-.8.9zm.4-.9c0-.4-.2-.6-.4-.6-.4 0-.4.3-.4.6 0 .4.2.6.4.6.3.1.4-.1.4-.6zM747.1 179.3l.4 1.3.4-1.3h.3l.4 1.3.4-1.3h.3l-.5 1.7h-.3l-.4-1.3-.4 1.3h-.3l-.5-1.7h.2zM749.7 180.8c0 .1-.1.2-.2.2s-.2-.1-.2-.2.1-.2.2-.2l.2.2zM750.8 181c-.5 0-.8-.4-.8-.9s.3-.9.8-.9.8.4.8.9c0 .7-.3.9-.8.9zm.4-.9c0-.4-.2-.6-.4-.6-.4 0-.4.3-.4.6 0 .4.2.6.4.6.2.1.4-.1.4-.6zM752.2 179.3l.1.3c.1-.2.2-.4.5-.4s.4.1.4.2c.1.2.1.4.1.5v1h-.3v-.9c0-.1 0-.3-.1-.4-.1-.1-.2-.2-.4-.2-.4 0-.4.3-.4.4v1.1h-.1v-1.7l.2.1zM754.5 178.6s-.4.5-.4 1.4c0 .9.4 1.4.4 1.4h-.3s-.5-.5-.5-1.4c0-.9.5-1.4.5-1.4h.3zM755 179.4v-.8h.3l-.1.8h-.2zM756.5 179.6s-.2-.1-.4-.1-.3.1-.3.2c0 .4.8.3.8.8 0 .4-.3.5-.6.5s-.4-.1-.4-.1v-.3s.3.1.4.1.4-.1.4-.3c0-.4-.8-.3-.8-.8 0-.3.3-.4.6-.4s.4.1.4.1l-.1.3zM758.1 180.9s-.2.1-.4.1c-.5 0-.8-.4-.8-.9s.3-.9.8-.9c.2 0 .4.1.4.1v.3s-.2-.1-.4-.1c-.4 0-.5.3-.5.6 0 .4.2.6.5.6.2 0 .4-.1.4-.1v.3zM759.4 179.6h-.2c-.4 0-.4.3-.4.4v1h-.3v-1.7h.3l.1.4c.1-.3.3-.4.5-.4h.1v.3h-.1zM760.3 181c-.5 0-.8-.4-.8-.9s.3-.9.8-.9.8.4.8.9c0 .7-.3.9-.8.9zm.5-.9c0-.4-.2-.6-.4-.6-.4 0-.4.3-.4.6 0 .4.2.6.4.6.2.1.4-.1.4-.6zM761.9 178.6v2.4h-.3v-2.4h.3zM762.7 178.6v2.4h-.3v-2.4h.3zM763.5 180.8c0 .1-.1.2-.2.2s-.2-.1-.2-.2.1-.2.2-.2c.2.1.2.2.2.2zM764.3 179.3l.1.3c0-.2.2-.4.4-.4.3 0 .4.2.5.4.1-.3.3-.4.5-.4.3 0 .4.1.4.2.1.2.1.3.1.5v1h-.3v-.9c0-.2 0-.3-.1-.4-.1-.1-.2-.2-.3-.2-.4 0-.4.3-.4.4v1.1h-.3v-1c0-.2 0-.3-.1-.4-.1-.1-.2-.2-.3-.2-.4 0-.4.3-.4.4v1.1h-.3l.5-1.5zM767.2 178.8c0 .1-.1.2-.2.2s-.2-.1-.2-.2.1-.2.2-.2c.2 0 .2.1.2.2zm0 .5v1.7h-.3v-1.7h.3zM768.8 180.9s-.2.1-.4.1c-.5 0-.8-.4-.8-.9s.3-.9.8-.9c.2 0 .4.1.4.1v.3s-.2-.1-.4-.1c-.4 0-.5.3-.5.6 0 .4.2.6.5.6.2 0 .4-.1.4-.1v.3zM770.1 179.6h-.2c-.4 0-.4.3-.4.4v1h-.3v-1.7h.3l.1.4c.1-.3.3-.4.5-.4h.1v.3h-.1zM771 181c-.5 0-.8-.4-.8-.9s.3-.9.8-.9.8.4.8.9c0 .7-.2.9-.8.9zm.5-.9c0-.4-.2-.6-.4-.6-.4 0-.4.3-.4.6 0 .4.2.6.4.6.2.1.4-.1.4-.6zM773.7 178.6v2.4h-.3l-.1-.3c-.1.2-.3.4-.5.4-.4 0-.7-.4-.7-.9s.3-.9.7-.9c.3 0 .4.1.5.3v-1h.4zm-1.3 1.5c0 .4.1.6.4.6s.4-.3.4-.6c0-.4-.1-.6-.4-.6-.2 0-.4.3-.4.6zM775.4 180.9s-.2.1-.5.1-.5-.1-.6-.2c-.2-.2-.2-.4-.2-.6 0-.5.3-.9.7-.9.3 0 .4.1.5.3.1.2.1.4.1.6h-1.1c0 .4.2.5.5.5s.4-.1.4-.1l.2.3zm-.2-.9c0-.4-.1-.5-.4-.5-.3 0-.4.2-.4.5h.8zM776.1 179.3l.1.3c0-.2.2-.4.4-.4.3 0 .4.2.5.4.1-.3.3-.4.5-.4.3 0 .4.1.4.2.1.2.1.3.1.5v1h-.1v-.9c0-.2 0-.3-.1-.4-.1-.1-.2-.2-.3-.2-.4 0-.4.3-.4.4v1.1h-.4v-1c0-.2 0-.3-.1-.4-.1-.1-.2-.2-.3-.2-.4 0-.4.3-.4.4v1.1-1.7l.1.2zM779.5 181c-.5 0-.8-.4-.8-.9s.3-.9.8-.9.8.4.8.9c0 .7-.4.9-.8.9zm.4-.9c0-.4-.2-.6-.4-.6-.4 0-.4.3-.4.6 0 .4.2.6.4.6.3.1.4-.1.4-.6zM780.6 179.4v-.8h.3l-.1.8h-.2zM781.2 180.7l-.3.8h-.2l.2-.8h.3zM783 178.7v1.5c0 .4.1.7.6.7.4 0 .6-.3.6-.7v-1.5h.3v1.4c0 .2 0 .4-.2.7-.2.2-.4.3-.7.3-.3 0-.5-.1-.7-.3s-.2-.5-.2-.7v-1.4h.3zM785.9 181h-.3c-.2 0-.4-.1-.4-.2-.1-.1-.1-.3-.1-.4v-.9h-.4v-.3h.4v-.4l.3-.1v.5h.5v.3h-.5v1.2c0 .1.1.1.2.1s.3-.1.3-.1v.3zM786.6 178.8c0 .1-.1.2-.2.2s-.2-.1-.2-.2.1-.2.2-.2.2.1.2.2zm0 .5v1.7h-.3v-1.7h.3zM787.4 178.6v2.4h-.3v-2.4h.3zM788.3 180.8c0 .1-.1.2-.2.2s-.2-.1-.2-.2.1-.2.2-.2l.2.2zM790.1 178.6v2.4h-.3l-.1-.3c-.1.2-.3.4-.5.4-.4 0-.7-.4-.7-.9s.3-.9.7-.9c.3 0 .4.1.5.3v-1h.4zm-1.2 1.5c0 .4.1.6.4.6s.4-.3.4-.6c0-.4-.1-.6-.4-.6-.2 0-.4.3-.4.6zM791.9 180.9s-.2.1-.5.1-.5-.1-.6-.2c-.2-.2-.2-.4-.2-.6 0-.5.3-.9.7-.9.3 0 .4.1.5.3s.1.4.1.6h-1.1c0 .4.2.5.5.5s.4-.1.4-.1l.2.3zm-.3-.9c0-.4-.1-.5-.4-.5-.3 0-.4.2-.4.5h.8zM792.3 180.1v-.3h1v.3h-1zM738.3 182.3s-.4.5-.4 1.4.4 1.4.4 1.4h-.3s-.5-.5-.5-1.4.5-1.4.5-1.4h.3zM739.2 184.9v-.3c-.3 0-.4-.1-.4-.1v-.3s.2.1.4.1l.1-.7c-.3-.1-.6-.3-.6-.5 0-.4.3-.5.7-.5v-.3h.3v.3c.3 0 .4.1.4.1v.3s-.2-.1-.4-.1l-.1.7c.3.1.6.3.6.6 0 .4-.3.5-.7.5v.3l-.3-.1zm0-1.4l.1-.6c-.3 0-.4.1-.4.3 0 .1.2.2.3.3zm.2.3l-.1.6c.3 0 .4-.1.4-.3.1-.1 0-.3-.3-.3zM740.8 184.5c0 .1-.1.2-.2.2s-.2-.1-.2-.2.1-.2.2-.2l.2.2zM741.3 185.3V183h.3l.1.3c.1-.2.3-.4.5-.4.4 0 .7.4.7.9s-.3.9-.7.9c-.3 0-.4-.1-.5-.3v.9h-.4zm1.2-1.5c0-.4-.1-.6-.4-.6s-.4.3-.4.6.1.6.4.6c.3.1.4-.1.4-.6zM744.1 183.3h-.2c-.4 0-.4.3-.4.4v1h-.3V183h.3l.1.4c.1-.3.3-.4.5-.4h.1v.3h-.1zM745.1 184.7c-.5 0-.8-.4-.8-.9s.3-.9.8-.9.8.4.8.9c-.1.7-.3.9-.8.9zm.4-.9c0-.4-.2-.6-.4-.6-.4 0-.4.3-.4.6 0 .4.2.6.4.6s.4-.1.4-.6zM746.5 183l.4.6.4-.6h.4l-.5.8.6.9h-.4l-.4-.7-.4.7h-.6l.6-.9-.5-.8h.4zM748.8 184.7c-.2.4-.3.6-.7.6h-.2v-.3h.2c.2 0 .3-.2.4-.4l-.7-1.6h.4l.4 1.3.4-1.3h.3l-.5 1.7zM750.4 182.3s-.4.5-.4 1.4.4 1.4.4 1.4h-.3s-.5-.5-.5-1.4.5-1.4.5-1.4h.3zM751.7 184.7h-.3c-.2 0-.4-.1-.4-.2-.1-.1-.1-.3-.1-.4v-.9h-.4v-.2h.4v-.4l.3-.1v.5h.5v.3h-.5v1.2c0 .1.1.1.2.1s.3-.1.3-.1v.2zM752.4 182.3v1c.1-.2.2-.4.4-.4.3 0 .4.1.4.2.1.2.1.4.1.5v1h-.2v-1c0-.1 0-.3-.1-.4-.1-.1-.2-.2-.4-.2-.4 0-.4.3-.4.4v1.1h-.3v-2.4l.5.2zM754.3 182.5c0 .1-.1.2-.2.2s-.2-.1-.2-.2.1-.2.2-.2.2.1.2.2zm0 .5v1.7h-.3V183h.3zM755.8 183.3s-.2-.1-.4-.1-.3.1-.3.2c0 .4.8.3.8.8 0 .4-.3.5-.6.5s-.4-.1-.4-.1v-.3s.3.1.4.1.4-.1.4-.3c0-.4-.8-.3-.8-.8 0-.3.3-.4.6-.4s.4.1.4.1l-.1.3zM756.6 184.5c0 .1-.1.2-.2.2s-.2-.1-.2-.2.1-.2.2-.2l.2.2zM756.8 185.1v-.2h1.2v.2h-1.2zM759.1 183.3s-.2-.1-.4-.1-.3.1-.3.2c0 .4.8.3.8.8 0 .4-.3.5-.6.5s-.4-.1-.4-.1v-.3s.3.1.4.1.4-.1.4-.3c0-.4-.8-.3-.8-.8 0-.3.3-.4.6-.4s.4.1.4.1v.3h-.1zM760.7 184.7s-.2.1-.4.1c-.5 0-.8-.4-.8-.9s.3-.9.8-.9c.2 0 .4.1.4.1v.3s-.2-.1-.4-.1c-.4 0-.5.3-.5.6s.2.6.5.6c.2 0 .4-.1.4-.1v.3zM762 183.3h-.2c-.4 0-.4.3-.4.4v1h-.3V183h.3l.1.4c.1-.3.3-.4.5-.4h.1v.3h-.1zM762.9 184.7c-.5 0-.8-.4-.8-.9s.3-.9.8-.9.8.4.8.9c0 .7-.2.9-.8.9zm.6-.9c0-.4-.2-.6-.4-.6-.4 0-.4.3-.4.6 0 .4.2.6.4.6.2.1.4-.1.4-.6zM764.5 182.3v2.4h-.3v-2.4h.3zM765.3 182.3v2.4h-.3v-2.4h.3zM766.2 182.4v1h1.1v-1h.3v2.3h-.3v-1.1h-1.1v1.1h-.3v-2.3h.3zM768.2 183s.2-.1.5-.1.4.1.5.2c.1.1.1.3.1.4v.6c0 .1 0 .3.2.3h.1v.2h-.2c-.2 0-.4-.1-.4-.3-.1.2-.3.4-.5.4-.4 0-.5-.2-.5-.5s.3-.5.8-.5h.2c0-.2 0-.3-.1-.4-.1-.1-.2-.2-.4-.2-.3 0-.4.1-.4.1l.1-.2zm.5 1.5c.2 0 .3-.1.4-.2s.1-.3.1-.4h-.2c-.2 0-.6 0-.6.3 0 .2.1.3.3.3zM770.2 183l.1.3c.1-.2.2-.4.5-.4s.4.1.4.2c.1.2.1.4.1.5v1h-.3v-1c0-.1 0-.3-.1-.4-.1-.1-.2-.2-.4-.2-.4 0-.4.3-.4.4v1.1h-.3V183h.4zM773.2 182.3v2.4h-.2l-.1-.3c-.1.2-.3.4-.5.4-.4 0-.7-.4-.7-.9s.3-.9.7-.9c.3 0 .4.1.5.3v-1h.3zm-1.1 1.5c0 .4.1.6.4.6s.4-.3.4-.6-.1-.6-.4-.6-.4.3-.4.6zM774.1 182.3v2.4h-.3v-2.4h.3zM775.9 184.6s-.2.1-.5.1-.5-.1-.6-.2c-.2-.2-.2-.4-.2-.6 0-.5.3-.9.7-.9.3 0 .4.1.5.3.1.2.1.4.1.6h-1.1c0 .4.2.5.5.5s.4-.1.4-.1l.2.3zm-.3-.9c0-.4-.1-.5-.4-.5s-.4.2-.4.5h.8zM777.3 183.3h-.2c-.4 0-.4.3-.4.4v1h-.3V183h.3l.1.4c.1-.3.3-.4.5-.4h.1v.3h-.1zM777.6 184.4l-.3.8h-.2l.2-.8h.3zM779.9 184.7h-.3c-.2 0-.4-.1-.4-.2-.1-.1-.1-.3-.1-.4v-.9h-.4v-.2h.4v-.4l.3-.1v.5h.5v.3h-.5v1.2c0 .1.1.1.2.1s.3-.1.3-.1v.2zM780.6 182.3v1c.1-.2.2-.4.4-.4s.4.1.4.2c.1.2.1.4.1.5v1h-.3v-1c0-.1 0-.3-.1-.4s-.2-.2-.4-.2c-.4 0-.4.3-.4.4v1.1h-.3v-2.4l.6.2zM782.6 182.5c0 .1-.1.2-.2.2s-.2-.1-.2-.2.1-.2.2-.2.2.1.2.2zm-.1.5v1.7h-.3V183h.3zM784 183.3s-.2-.1-.4-.1-.3.1-.3.2c0 .4.8.3.8.8 0 .4-.3.5-.6.5s-.4-.1-.4-.1v-.3s.3.1.4.1.4-.1.4-.3c0-.4-.8-.3-.8-.8 0-.3.3-.4.6-.4s.4.1.4.1l-.1.3zM784.3 185.2s.4-.5.4-1.4c0-1-.4-1.4-.4-1.4h.3s.5.5.5 1.4-.5 1.4-.5 1.4h-.3zM785.4 185.2s.4-.5.4-1.4c0-1-.4-1.4-.4-1.4h.3s.5.5.5 1.4-.5 1.4-.5 1.4h-.3zM786.4 185.2s.4-.5.4-1.4c0-1-.4-1.4-.4-1.4h.3s.5.5.5 1.4-.5 1.4-.5 1.4h-.3zM787.9 184.4l-.3.8h-.2l.2-.8h.3zm0-1.2c0 .1-.1.2-.2.2s-.2-.1-.2-.2.1-.2.2-.2.2.1.2.2zM743.5 190.4l.4 1.3.4-1.3h.3l-.6 1.7h-.3l-.6-1.7h.4zM746.2 192s-.2.1-.5.1-.5-.1-.6-.2c-.2-.2-.2-.4-.2-.6 0-.5.3-.9.7-.9.3 0 .4.1.5.3.1.2.1.4.1.6h-1c0 .4.2.5.5.5s.4-.1.4-.1v.3zm-.2-.9c0-.4-.1-.5-.4-.5s-.4.2-.4.5h.8zM747.2 189.8l.8 1.9.8-1.9h.4v2.3h-.3v-1.9l-.9 1.8h-.2l-.8-1.8v1.9h-.3v-2.3h.5zM750.1 189.9c0 .1-.1.2-.2.2s-.2-.1-.2-.2.1-.2.2-.2.2.1.2.2zm0 .5v1.7h-.3v-1.7h.3zM751.7 192.1s-.2.1-.4.1c-.5 0-.8-.4-.8-.9s.3-.9.8-.9c.2 0 .4.1.4.1v.3s-.2-.1-.4-.1c-.4 0-.5.3-.5.6 0 .4.2.6.5.6.2 0 .4-.1.4-.1v.3zM753 190.7h-.2c-.4 0-.4.3-.4.4v1h-.3v-1.7h.3l.1.4c.1-.3.3-.4.5-.4h.1v.3h-.1zM753.9 192.1c-.5 0-.8-.4-.8-.9s.3-.9.8-.9.8.4.8.9c0 .6-.3.9-.8.9zm.5-.9c0-.4-.2-.6-.4-.6s-.4.3-.4.6c0 .4.2.6.4.6.2.1.4-.1.4-.6zM755.7 189.8c.3 0 .5 0 .8.2.3.2.4.4.4 1 0 .5-.2.9-.5 1.1-.3.2-.5.2-.8.2h-.6V190l.7-.2zm-.3 2h.4c.2 0 .4 0 .5-.1.3-.2.4-.4.4-.8s-.1-.7-.4-.8c-.2-.1-.4-.1-.5-.1h-.4v1.8zM758.6 192s-.2.1-.5.1-.5-.1-.6-.2c-.2-.2-.2-.4-.2-.6 0-.5.3-.9.7-.9.3 0 .4.1.5.3s.1.4.1.6h-1.1c0 .4.2.5.5.5s.4-.1.4-.1l.2.3zm-.2-.9c0-.4-.1-.5-.4-.5-.3 0-.4.2-.4.5h.8zM759.4 190.4l.1.3c0-.2.2-.4.4-.4.3 0 .4.2.5.4.1-.3.3-.4.5-.4.3 0 .4.1.4.2.1.2.1.3.1.5v1h-.3v-1c0-.2 0-.3-.1-.4-.1-.1-.2-.2-.3-.2-.4 0-.4.3-.4.4v1.1h-.4v-1c0-.2 0-.3-.1-.4-.1-.1-.2-.2-.3-.2-.4 0-.4.3-.4.4v1.1h-.3v-1.7l.6.3zM762.8 192.1c-.5 0-.8-.4-.8-.9s.3-.9.8-.9.8.4.8.9c-.1.6-.4.9-.8.9zm.4-.9c0-.4-.2-.6-.4-.6-.4 0-.4.3-.4.6 0 .4.2.6.4.6s.4-.1.4-.6zM764.9 191.1v-.2h1.4v.2h-1.4zm0 .6v-.2h1.4v.2h-1.4zM768 190.4l.1.3c.1-.2.2-.4.5-.4s.4.1.4.2c.1.2.1.4.1.5v1h-.3v-1c0-.1 0-.3-.1-.4-.1-.1-.2-.2-.4-.2-.4 0-.4.3-.4.4v1.1h-.3v-1.7l.4.2zM770.9 192s-.2.1-.5.1-.5-.1-.6-.2c-.2-.2-.2-.4-.2-.6 0-.5.3-.9.7-.9.3 0 .4.1.5.3.1.2.1.4.1.6h-1c0 .4.2.5.5.5s.4-.1.4-.1v.3h.1zm-.2-.9c0-.4-.1-.5-.4-.5s-.4.2-.4.5h.8zM771.6 190.4l.4 1.3.4-1.3h.3l.4 1.3.4-1.3h.3l-.5 1.7h-.3l-.4-1.3-.4 1.3h-.3l-.5-1.7h.2zM775.4 189.8l.8 1.9.8-1.9h.4v2.3h-.3v-1.9l-.8 1.8h-.3l-.8-1.8v1.9h-.2v-2.3h.4zM778.3 189.9c0 .1-.1.2-.2.2s-.2-.1-.2-.2.1-.2.2-.2.2.1.2.2zm0 .5v1.7h-.3v-1.7h.3zM779.9 192.1s-.2.1-.4.1c-.5 0-.8-.4-.8-.9s.3-.9.8-.9c.2 0 .4.1.4.1v.3s-.2-.1-.4-.1c-.4 0-.5.3-.5.6 0 .4.2.6.5.6.2 0 .4-.1.4-.1v.3zM781.2 190.7h-.2c-.4 0-.4.3-.4.4v1h-.3v-1.7h.3l.1.4c.1-.3.3-.4.5-.4h.1v.3h-.1zM782.1 192.1c-.5 0-.8-.4-.8-.9s.3-.9.8-.9.8.4.8.9c0 .6-.2.9-.8.9zm.5-.9c0-.4-.2-.6-.4-.6-.4 0-.4.3-.4.6 0 .4.2.6.4.6.3.1.4-.1.4-.6zM784 189.8c.3 0 .5 0 .8.2.3.2.4.4.4 1 0 .5-.2.9-.5 1.1-.3.2-.5.2-.8.2h-.6V190l.7-.2zm-.3 2h.4c.2 0 .4 0 .5-.1.3-.2.4-.4.4-.8s-.1-.7-.4-.8c-.2-.1-.4-.1-.5-.1h-.4v1.8zM786.9 192s-.2.1-.5.1-.5-.1-.6-.2c-.2-.2-.2-.4-.2-.6 0-.5.3-.9.7-.9.3 0 .4.1.5.3.1.2.1.4.1.6h-1.1c0 .4.2.5.5.5s.4-.1.4-.1l.2.3zm-.2-.9c0-.4-.1-.5-.4-.5-.3 0-.4.2-.4.5h.8zM787.7 190.4l.1.3c0-.2.2-.4.4-.4.3 0 .4.2.5.4.1-.3.3-.4.5-.4.3 0 .4.1.4.2.1.2.1.3.1.5v1h-.3v-1c0-.2 0-.3-.1-.4-.1-.1-.2-.2-.3-.2-.4 0-.4.3-.4.4v1.1h-.3v-1c0-.2 0-.3-.1-.4-.1-.1-.2-.2-.3-.2-.4 0-.4.3-.4.4v1.1h-.3l.5-1.4zM790.9 192.1c-.5 0-.8-.4-.8-.9s.3-.9.8-.9.8.4.8.9c0 .6-.2.9-.8.9zm.6-.9c0-.4-.2-.6-.4-.6-.4 0-.4.3-.4.6 0 .4.2.6.4.6.2.1.4-.1.4-.6zM792.8 189.7s-.4.5-.4 1.4c0 1 .4 1.4.4 1.4h-.3s-.5-.5-.5-1.4c0-.9.5-1.4.5-1.4h.3zM794.1 192.1h-.3c-.2 0-.4-.1-.4-.2-.1-.1-.1-.3-.1-.4v-.9h-.3v-.3h.4v-.4l.3-.1v.5h.5v.3h-.5v1.2c0 .1.1.1.2.1s.3-.1.3-.1l-.1.3zM794.5 190.5s.2-.1.5-.1.4.1.5.2c.1.1.1.3.1.4v.6c0 .1 0 .3.2.3h.1v.2h-.2c-.2 0-.4-.1-.4-.3-.1.2-.3.4-.5.4-.4 0-.5-.2-.5-.5 0-.4.3-.5.8-.5h.2c0-.2 0-.3-.1-.4-.1-.1-.2-.2-.4-.2-.3 0-.4.1-.4.1l.1-.2zm.5 1.4c.2 0 .3-.1.4-.2.1-.1.1-.3.1-.4h-.1c-.2 0-.6 0-.6.3-.1.2 0 .3.2.3zM797.1 190.7h-.2c-.4 0-.4.3-.4.4v1h-.3v-1.7h.3l.1.4c.1-.3.3-.4.5-.4h.1v.3h-.1zM797.4 191.2v-.2h1v.3h-1z"/><path class="st2" d="M801.2 151h-76.4c-1.6 0-2.9 1.6-2.9 3.2v1.8c1.8-.7 3.5-1 5.5-1 2.8 0 5.5.9 7.7 2.2h65.8v39.5h-59.7v4.3l3.3-1.4c1-.4 1.8-.6 3.1-.6 0 0 3.7-.2 5.5 3.3h5.5c1.1-1.2 2.4-1.8 3.9-2l4.2-.7c.4-.1.8-.1 1.1-.1 1.6 0 3.2.5 4.4 1.6.4.4.8.6 1.1 1.2h29.5c.6 0 1.1-.5 1.1-1.1v-47c.2-1.7-1.1-3.2-2.7-3.2zm-38.4 4.5c-.7 0-1.2-.5-1.2-1.2s.5-1.2 1.2-1.2 1.2.5 1.2 1.2c.1.6-.5 1.2-1.2 1.2zm31.8 44.5c0 .3-.2.4-.4.4h-1c-.3 0-.4-.2-.4-.4v-.4c0-.3.2-.4.4-.4h1c.3 0 .4.2.4.4v.4zm5.7 0c0 .3-.2.4-.4.4h-3.5c-.3 0-.4-.2-.4-.4v-.4c0-.3.2-.4.4-.4h3.4c.3 0 .4.2.4.4l.1.4z"/><g><path class="st5" d="M757.6 223.7h-17.2v-31.3c-.1-2.8-2.4-5-5.2-5H715.3c-2.8 0-5.1 2.2-5.2 5v9.6h14.4c1.5 0 2.7 1.2 2.7 2.7V219c0 1.5-1.2 2.7-2.7 2.7h-10.6v9.3h23.5c1.2 0 2.2 1 2.2 2.2v6.1h9.3V257c0 3.7 3.1 6.8 6.8 6.8h1.8c3.7 0 6.8-3.1 6.8-6.8l.1-26.7c-.1-3.5-3.1-6.6-6.8-6.6z"/><path class="st9" d="M805.9 256h1.3c.4 0 .6-.3.6-.6v-40.9h-2.6v40.9c.1.2.4.6.7.6z"/><circle class="st9" cx="734.5" cy="264.5" r="3.1"/><path class="st9" d="M737.4 231.8h-23.5v7.8H739v-6.2c0-.9-.7-1.6-1.6-1.6zM736.7 257.5l-16.8-2.7v-6.9h6.1c.4 0 .6-.3.6-.6v-1.8h-17.2v1.8c0 .4.3.6.6.6h6.7v6.8l-13.5 2.2v3.2l14.9-2.5h.4l18 2.9h.2c.5 0 1-.4 1-1v-1.1c-.2-.4-.6-.9-1-.9zM703.1 231.8h4.8v7.8h-4.8zM708 213.7c0-1.8 1.1-2.9 2.9-2.9 1.8 0 2.9 1.1 2.9 2.9v7.4h10.1c1.6 0 2.4-.8 2.4-2.4v-13.5c0-1.7-.8-2.4-2.4-2.4h-20.8V221h4.8v-7.3z"/><path class="st9" d="M713.2 240.4v-26.6c0-1.2-1-2.2-2.2-2.2-1.2 0-2.2 1-2.2 2.2v26.6h-5.5v4.1h33.4c1.3 0 2.4-1.1 2.4-2.4v-1.7h-25.9zM811.7 211.2H773c-1.1 1.1-2.5 1.8-4.1 2.1l-2.8.4h45.6c.4 0 .6-.3.6-.6v-1.3c0-.3-.2-.6-.6-.6zM759.1 212.5c-.4-.4-.9-.8-1.2-1.3h-6.3c-.5.4-1.1.8-1.8 1.1l-3.3 1.5h14.8c-.7-.3-1.5-.7-2.2-1.3z"/><path class="st5" d="M773.9 205.5c-.5-3.2-3-5.1-5.9-5.1-.4 0-.7 0-1.1.1 0 0-2.6.4-4.2.7-3.3.5-5.5 3.3-5 7 .5 3.2 3 5.1 5.9 5.1.4 0 .7 0 1.1-.1 0 0 2.6-.4 4.2-.7 3.2-.6 5.5-3.4 5-7zM752.9 203.5c-1.1-2.4-3.2-3.6-5.4-3.6-.9 0-1.8.2-2.6.5 0 0-2 .9-3.5 1.6v11.4c.6.3 1.3.4 1.9.4.9 0 1.8-.2 2.6-.5 0 0 2.4-1.1 3.9-1.8 3-1.3 4.6-4.7 3.1-8zM731.8 178.6h6.9c1.8-2.4 2.8-5.4 2.8-8.5 0-7.8-6.4-14.3-14.3-14.3-7.8 0-14.3 6.4-14.3 14.3s6.4 14.3 14.3 14.3c2.9 0 5.5-.9 7.8-2.4-1-.4-3.2-2-3.2-3.4zm5.4-7.3c1-.4 2 0 2.5 1 .4 1 0 2-1 2.5-1 .4-2 0-2.5-1-.3-1 .1-2 1-2.5z"/></g></g><g><path class="st2" d="M279.7 178.3h-50.3c-1.5 0-2.6 1.1-2.6 2.6v36.4h55.6v-36.4c-.1-1.5-1.2-2.6-2.7-2.6zM294.1 73h-50.3c-1.5 0-2.6 1.1-2.6 2.6V112h55.6V75.7c-.1-1.5-1.3-2.7-2.7-2.7z"/><path class="st9" d="M184.3 241.7l.2-.3v.4l-.2-.1z"/><path class="st5" d="M203.4 265.8l-15.2 5.1v38.8c0 4 3 7.3 7.3 7.3 4.4 0 7.3-3.3 7.3-7.3v-39h1.1v39c0 4 3 7.3 7.3 7.3 4.4 0 7.3-3.3 7.3-7.3v-38.8l-15.1-5.1zM203.4 185.4c-8.3 0-15 6.7-15 15s6.7 15 15 15 15-6.7 15-15-6.7-15-15-15zm-1.6 14.1c-.3-.4-.4-1-.3-1.4l3.3-.6c.5.9.4 1.9-.5 2.6-.9.5-2 .2-2.5-.6zm10.8 6s-.7.6-2.3 1.1c-.5.2-1.1.4-1.8.4-2.7.4-4.1-.1-4.1-.2-.4-.2-.4-.5-.3-.8.2-.4.5-.4.8-.4 0 0 1.1.4 3.4.1 2.4-.4 3.3-1.2 3.3-1.3.3-.3.6-.2.9.1.4.4.4.8.1 1zm.8-7.1c-.9.5-1.9.4-2.6-.5-.3-.4-.4-1-.3-1.4l3.3-.6c.6.8.4 1.9-.4 2.5z"/><path class="st5" d="M248.5 240c-.5-2.1-2.4-3.7-4.7-4l-15.3-1.8-9.4-12.1c-1.7-2.2-4.4-3.6-7.4-3.6l-5.7 21.3c-.6-2.7-1.2-13.3-1.8-16.2 0 0 4.1-4.1 4.1-5-2.1 1.4-5.5 1.4-5.5 1.4s-3-.1-5.5-1.4c0 1.1 4.1 5 4.1 5-.6 3-1.2 13.6-1.8 16.3l-8.7-21.4c-2.6 0-5.2 1-6.9 3.2l-12.3 16.4-.6.8-1.1 1.5c-1.1 1.5-1.4 3.3-.9 4.9 0 .1 0 .1.1.2.5 1.4 1.5 2.7 2.8 3.7l.8.5c.1.1 13.1 6.5 13.1 6.5l5.3-10.5.9.4-6.1 12.1v12.6l17.6-6.2 17.6 6.2v-28.4c.1.1.2.3.3.4.9 1.1 2.1 1.8 3.5 2.1 0 0 16.1 1.9 17.8 2.2 2.9.4 5.6-1.5 6.1-4.8 0-.3 0-.5.1-.7-.3-1-.5-1.6-.5-1.6zm-66.3 2.2l3.7-4.9v6.8l-3.7-1.9zm21.1-3.3zm14.2-4.3h-1.1v.7c0 .2-.1.3-.3.3-.2 0-.3-.1-.3-.3v-.7h-2v1c0 .2-.1.5-.3.5s-.3-.4-.3-.5v-1h-3.5v-.8h3.1v-1.2c0-.4.4-1.8.8-1.8s.8 1.3.8 1.8v1.2h.5v-2.4c0-.4.3-.6.6-.6h.4c.4 0 .6.3.6.6v2.3h1.1v.9h-.1z"/><path class="st2" d="M249.8 251.9l20.3-12.7c.3-.2.3-.4.2-.6l-9.8-15.7c-.2-.3-.4-.3-.6-.2l-20.3 12.7c-.8.5-1.1 1.6-.5 2.5l8.4 13.4c.4.9 1.5 1.1 2.3.6z"/><path class="st4" d="M250.1 250.9l19.4-12.1-9.5-15.2-7.5 4.7-11.9 7.4 9.5 15.2z"/><path class="st10" d="M251.1 247.4l14-8.7 17.3-20.2h-55.6l17.3 17.9 7 11z"/><g><path class="st5" d="M234 207.3c-1.8 0-3.3 1.5-3.3 3.3 0 1.8 1.5 3.3 3.3 3.3 1.8 0 3.3-1.5 3.3-3.3 0-1.8-1.5-3.3-3.3-3.3m1.1 2.2c.3 0 .4.2.4.4s-.2.4-.4.4c-.3 0-.4-.2-.4-.4 0-.3.2-.4.4-.4m-2.2 0c.3 0 .4.2.4.4s-.2.4-.4.4-.4-.2-.4-.4c0-.3.2-.4.4-.4m2.9 2.1c-.3.6-1 1.1-1.8 1.1s-1.5-.4-1.8-1.1c0 0-.1-.3.3-.3h3.1c.3 0 .2.3.2.3M243.7 207.6h-4.2v1.4h4.2zM246.3 207.6h-2.1v1.4h2.1zM246.8 207.6h1.1v1.4h-1.1zM250.5 209h2.2v-1.4H248.4v1.4h1.1zM255.3 207.6h-2.1v1.4h4.2v-1.4h-1zM240.5 209.9h-1v1.4h3.1v-1.4h-1zM243.2 209.9v1.4h2.1v-1.4h-1.1zM246.8 209.9h-1v1.4h3.2v-1.4h-1.1zM251.6 209.9h-2.1v1.4h4.2v-1.4h-1zM255.3 209.9h-1.1v1.4h3.2v-1.4h-1zM239.5 212.2v1.4h2.1v-1.4h-1.1zM263.1 209h1v-1.4h-3.2v1.4h1.1zM266.8 209h5.2v-1.4h-7.4v1.4h1.1zM276.8 207.6h-4.2v1.4h5.2v-1.4zM267.3 209.9h-6.4v1.4h6.4zM271 211.3v-1.4h-3.2v1.4h2.1zM271.5 211.3h4.2v-1.4h-4.2zM264.1 212.2h-3.2v1.4H266.2v-1.4h-1zM266.8 212.2v1.4h2.1v-1.4h-1.1zM274.7 212.2H269.4v1.4h7.4v-1.4h-1.1z"/></g><path class="st12" d="M232.5 197.9l4.5 3.6 7.2-2.2 4.5 2.2 7-3.6 4.3 2.4 3-2.4h5.2l3.2 2.1 6.4-16.7"/><g><path class="st2" d="M264.2 129.7l14.4 11.7c.4-1.1 1.1-2.1 2.2-2.9.6-.5 1.4-.9 2.2-1.1l4.1-1.4c.8-.3 1.5-.4 2.3-.4l-14.7-12.1c-.8-.6-1.8-.7-2.6-.3l-7.4 3.6c-1.3.6-1.5 2.1-.5 2.9z"/><path class="st5" d="M311.3 173.8c1.3 0 2.8 0 5.3-.1.1 16.2.1 36.3.1 38.4 0 4.2-2.8 7.8-7.5 7.8s-7.3-3.4-7.3-7.8l-.1-35.8c1.9-.7 5.9-2.5 9.5-2.5zM329.5 156.4c-1.6 1.2-3.5 1.8-5.9 1.7-2.7-4.9-16.7-30.2-18.4-33-.4-.6-.3-1.3 0-2l2.8 1.6.6.4.4-.4 2.5 4.3 2.7-3.8.5.6.5.6.7-.4 10.5-4.8 1.8-.8c2.3.5 4.1 2.6 4.1 5v26.2c-.2 1.8-1.2 3.5-2.8 4.8zM301.8 153.3v-27.8c0-.7.2-1.3.4-1.9-.1 1 0 2 .5 3 1.7 2.9 17 30.6 18.7 33.6.3 1.3 1.1 3.7 3 8.6.4 1.1.9 2.1 1.3 3.1-5.3.2-11.8.3-14.4.3-4.5 0-8.3 1.8-9.5 2.3l-.1-17.3.1-3.9zM300.6 102.6c0 8 6.5 14.5 14.4 14.5 8 0 14.5-6.5 14.5-14.4 0-8-6.5-14.5-14.4-14.5-8 0-14.5 6.4-14.5 14.4zm14.3 4.7c-1.1 0-1.9-.9-1.9-1.9 0-1.1.9-1.9 1.9-1.9 1.1 0 1.9.9 1.9 1.9 0 1.1-.8 1.9-1.9 1.9zm-8.4 4.2l8.5.2c0 1.6-1.9 2.8-4.3 2.8-2.4-.1-4.3-1.4-4.2-3zm-3-6c0-1.1.9-1.9 1.9-1.9 1.1 0 1.9.9 1.9 1.9s-.9 1.9-1.9 1.9c-1.1-.1-1.9-.9-1.9-1.9z"/><path class="st5" d="M315.8 125.1l-2.9-3.5 10-2.8 3.4 1.5zM308.5 123.9l-3.3-1.9 2.1-2.1 3 1.3z"/><g><path class="st5" d="M295.1 140.6c-1.1-3.4-4.7-4.9-7.8-3.9-1.7.5-4.1 1.4-4.1 1.4-3.3 1.1-5 4.3-3.9 7.8 1.1 3.4 4.7 4.9 7.8 3.9 1.7-.5 4.1-1.4 4.1-1.4 3.3-1.1 5.1-4.4 3.9-7.8z"/></g><g><path class="st5" d="M346 150.5c-3.3-1.7-6.8-.4-8.3 2.6-.8 1.6-1.9 3.9-1.9 3.9-1.6 3-.6 6.6 2.6 8.3 3.3 1.7 6.8.4 8.3-2.6.8-1.6 1.9-3.9 1.9-3.9 1.6-3 .7-6.6-2.6-8.3z"/></g><path class="st5" d="M330 169.3l2.3-1.1-1.1-2.1c1.5-.5 3.1-1.1 4.5-1.9.6.8 1.4 1.4 2.4 1.9 1.1.5 2.1.8 3.3.8.4 0 .9-.1 1.3-.2-.1.7-.4 1.2-.6 1.7-2.7 3.5-10.2 6.4-12.6 7.3-.3-.6-.5-1.3-.9-1.9v-.1c-.3-.6-.5-1.2-.8-1.9-.6-1.5-1.2-2.9-1.8-4.2.7-.2 1.7-.4 2.8-.7l1.2 2.4zM330.7 157.8c2.6-2.1 3.9-5.5 4.4-8.7.4.4.8.7 1.2 1 .3.3 1.5 1 1.6 1.3.1.3-.8 1.3-1.1 1.8-.4.6-.6 1.2-1 1.9-.9 1.7-1.8 3.3-1.7 5.3 0 .6.2 1.3.4 1.9.1.3.4.7.4 1s-.5.4-.9.6c-.6.4-1.3.6-1.9.9-.3.1-1 .4-1.2.4-.4-.1 0 .1-.3-.2s-.3-.9-.6-1.1c-.2-.2-.1-.1-.4 0-.6.3-1.3.6-1.9 1 .2.4.4.7.5 1.1-.4.1-1 .3-1.4.4-.3.1-1 .4-1.2.3-.4-.2-1-2.1-1.1-2.6-.4-1.3-1-2.6-1.2-4 2.6 0 5.3-.6 7.4-2.3.8-.7-2 1.6 0 0z"/><path class="st5" d="M318.9 212.3c0 4.2 2.6 7.7 7.2 7.7s7.3-3.5 7.3-7.7V176c-2.3 1-4.1 1.6-4.2 1.7l-.8.3-.4-.7s-.7-1.5-1.6-3.7c-2.8.1-4.8.2-7.7.3l.2 38.4z"/></g><path class="st4" d="M273.4 124.8l-7.7 3.8 12.2 10 7.4-4.1z"/><g><path class="st10" d="M241 113.3h55.7l-13.9 20.8-4.6 2.5-10.6-8.3z"/></g><g><path class="st13" d="M249.8 82.1h5.2V84h-5.2zM249.8 85.9h5.2v1.9h-5.2zM249.8 89.7h5.2v1.9h-5.2zM249.8 93.6h5.2v1.9h-5.2z"/><path class="st14" d="M249.8 97.4h5.2v1.9h-5.2z"/><path class="st13" d="M249.8 101.1h5.2v1.9h-5.2zM249.8 105h5.2v1.9h-5.2z"/><path class="st15" d="M249.8 84h5.2v1.9h-5.2z"/><path class="st10" d="M249.8 80.2h5.2v1.9h-5.2z"/><path class="st15" d="M249.8 87.8h5.2v1.9h-5.2zM249.8 91.6h5.2v1.9h-5.2zM249.8 95.4h5.2v1.9h-5.2zM249.8 99.3h5.2v1.9h-5.2zM249.8 103.1h5.2v1.9h-5.2z"/><g><path class="st13" d="M255.8 82.1h9.9V84h-9.9zM255.8 85.9h9.9v1.9h-9.9zM255.8 89.7h9.9v1.9h-9.9zM255.8 93.6h9.9v1.9h-9.9z"/><path class="st14" d="M255.8 97.4h9.9v1.9h-9.9z"/><path class="st13" d="M255.8 101.1h9.9v1.9h-9.9zM255.8 105h9.9v1.9h-9.9z"/><path class="st15" d="M255.8 84h9.9v1.9h-9.9z"/><path class="st10" d="M255.8 80.2h9.9v1.9h-9.9z"/><path class="st15" d="M255.8 87.8h9.9v1.9h-9.9zM255.8 91.6h9.9v1.9h-9.9zM255.8 95.4h9.9v1.9h-9.9zM255.8 99.3h9.9v1.9h-9.9zM255.8 103.1h9.9v1.9h-9.9z"/></g><g><path class="st16" d="M266.6 82.1h9.9V84h-9.9zM266.6 85.9h9.9v1.9h-9.9z"/><path class="st10" d="M266.6 80.2h9.9v1.9h-9.9z"/><path class="st17" d="M266.6 84h9.9v1.9h-9.9zM266.6 87.8h9.9v1.9h-9.9z"/><path class="st10" d="M266.6 91.6h9.9v1.9h-9.9z"/><path class="st17" d="M266.6 95.4h9.9v1.9h-9.9zM266.6 99.3h9.9v1.9h-9.9zM266.6 103.1h9.9v1.9h-9.9z"/><path class="st16" d="M266.6 89.7h9.9v1.9h-9.9zM266.6 93.6h9.9v1.9h-9.9zM266.6 97.4h9.9v1.9h-9.9zM266.6 101.1h9.9v1.9h-9.9zM266.6 105h9.9v1.9h-9.9z"/></g><path class="st18" d="M255.4 80.2v26.7M266.1 80.2V107"/><g><path class="st13" d="M277.3 82.1h9.9V84h-9.9zM277.3 85.9h9.9v1.9h-9.9z"/><path class="st10" d="M277.3 80.2h9.9v1.9h-9.9z"/><path class="st15" d="M277.3 84h9.9v1.9h-9.9zM277.3 87.8h9.9v1.9h-9.9zM277.3 91.6h9.9v1.9h-9.9zM277.3 95.4h9.9v1.9h-9.9zM277.3 99.3h9.9v1.9h-9.9zM277.3 103.1h9.9v1.9h-9.9z"/><path class="st13" d="M277.3 89.7h9.9v1.9h-9.9zM277.3 93.6h9.9v1.9h-9.9z"/><path class="st14" d="M277.3 97.4h9.9v1.9h-9.9z"/><path class="st13" d="M277.3 101.1h9.9v1.9h-9.9zM277.3 105h9.9v1.9h-9.9z"/></g><path class="st18" d="M276.9 80.2v26.7"/><path class="st16" d="M248.9 76.4h16.8v2.1h-16.8z"/></g></g><g><path class="st10" d="M661.6 126.5c.2.4.3.4.6.3.2-.1.4-.1.4-.2.3-.1.3-.3.1-.4s-.4-.4-.4-.6c-.2-.2-.3-.4-.3-.7.3.5.6.9 1 1.3.1.1 0 .4-.1.5-.3.2-.6.4-1 .4-.2-.2-.3-.2-.3-.6zM660.6 127.3c.4.1.9.1 1.2.1.2 0 .2.1.3.3 0 .2-.2.2-.3.2-.5-.2-.9-.3-1.2-.6zM659.8 124.5c-.1-.4.4-.9.7-.8.1 0 .2.1.2.2 0 .2-.1.1-.2.1-.3-.1-.3 0-.7.5zM661 124.7c.1.3.2.4.4.5.1.1.1.3 0 .4-.2.1-.5.1-.6 0-.1 0-.1-.1-.1-.2s.1-.1.2-.1c.2 0 .4.1.4 0s-.1-.3-.1-.4c-.3-.1-.3-.1-.2-.2z"/><path class="st10" d="M663.2 126.9c-.2.4-.4.7-.9.8-.1 0-.2.1-.2-.1 0-.1-.1-.3.1-.3.4 0 .7-.2 1-.4zM658.3 126.2c-.1-.1-.1-.4-.3-.3-.2.1-.1.3-.2.4-.1-.1-.1-.3-.1-.4v-.2c0-.1-.2 0-.1-.1s.2-.1.3-.1c.3.2.5.5.4.7zM663.1 124.6c.1.2.2.3.3.4.1.1.1.3 0 .3-.2.1-.4.2-.5 0 0 0-.1-.1 0-.1 0-.1.1-.1.1-.1.4 0 .4-.2.3-.4-.2 0-.2 0-.2-.1zM663.6 132.1c.2-.3.4-.3.5-.3-.1.2-.2.2-.5.3zM664.4 132.6h-.7c.3-.2.5-.1.7 0zM663.7 132.2c.3-.2.4-.1.7-.1-.2.2-.5.1-.7.1z"/><path class="st10" d="M664.7 131c1-1.8.7-4.1-.6-5.6-.3-.3-.4-.5-.4-1-1.3-3.9-5.4-2-5.9-.7-.4.2-.4.5-.4.9 0 .2-.1.3-.2.4-2 1.9-2.2 5-.4 7.1.4.4.5.7.4 1.1 0 .1 0 .3.1.3.5.2 1.1.6 1.7.6.2 0 .2.1.3.2.1.3.2.5.2.7.2.5.2.5.8.6.1.1 1.3.1 1.5 0 .4 0 .6-.1.6-.5-.1-1.4-.3-1.5.6-1.7.2 0 .5-.3.7-.2.3.3.6.2.9.2.3 0 .4-.2.5-.4.2-.4.1-1.4-.3-1.8-.2 0-.1-.1-.1-.2zm-.7-1.6c-.2.6-.4 1.2-.7 1.8-.1.2-.2.3-.4.3h-.6c.2-.3.7-1.1.7-1.1.2-.2.4-.3.2-.5-.1-.1 0-.2 0-.3.1-.3.1-.4 0-.7s-.2-.4-.4-.5c.2-.3.4-.3.6 0 .2.2.4.3.5.4.1.3.2.4.1.6zm-2.1-.1c0-.1 0-.1.1-.2s.4-.4.7-.2c.2.1.2.7.1.9s-.3.1-.4.1-.4 0-.4-.2c0-.1 0-.3.3-.3-.2-.1-.3 0-.4-.1zm-4.2-4.9s.2-.4.4-.9c.1-.1.2-.3.4-.4.1-.1.2-.1.3-.2.3-.2.6-.3.9-.3-.1.1-.3.2-.4.3-.5.4-.5.8-.5.9v.8c-.1.4-.1.6 0 1 0 .1.1.2 0 .3-.3-.5-.4-.7-1.1-.5-.2-.5-.1-.8 0-1zm.2 1c.3-.1.4.1.5.4.1.2.1.2.3.2s.3-.1.2-.3c-.2-.4-.1-1 0-1.4 0-.2.1-.4-.1-.5v-.2s.1-.2.4-.4c1-.9 1.7-1.1 3-.6.4.2.7.5 1 .9-.3 0-.4 0-.5.4.3-.1.5-.1.7.2.3.2.3.5.3.8.1.7 0 1.3-.2 2-.2.5-.4.9-.7 1.3-.6.8-1.8.9-2.6.2-.3-.3-.4-.5-.7-.8.2.5.5.9 1 1.1-.4.1-.7.3-1.1.1-.3-.1-.5-.2-.6-.5-.1-.3-.3-.5-.4-.8-.1-.2-.1-.4.1-.5 0 0 .1-.1 0-.2s-.1 0-.2 0c-.3.2-.4.2-.6-.1-.2-.2-.3-.4-.3-.7 0-.3.2-.6.5-.6zm3.8 4.9c.1 0 .1 0 0 0 .1.2.1.2 0 .2v-.2c0 .1 0 0 0 0zm0-.5c-.3 0-.2-.3-.3-.4 0-.2.1-.2.3-.3.2 0 .3.2.3.4-.1.2-.2.3-.3.3zm.1.9c.1 0 .1 0 0 0 .1.2.1.2 0 .2s-.1 0 0-.2zm-.4-1c0 .2-.7.6-1 .7-.1 0-.2 0-.2-.1-.2-.4-.3-.7-.2-1.1 0-.2.1-.3.4-.3.4.1 1 .4 1 .4l-.3.2s.3 0 .3.2zm-2.3 4.1c-.5-.1-1-.4-1.5-.6-.1-.1-.1-.2-.1-.3-.1-1.1-.2-2.2-.6-3.2 0-.1 0-.2.1-.3.4-.4.9-.7 1.4-.9.1-.1.2-.1.3.1.3.4.6.5 1.1.7.2.1.3.2.3.3 0 .2.1.4.2.6.1.2.2.4.4.3 0 .1-.1.1-.1.2-.2.2-.1.4.1.4.3.2.5.3.9.4-.7.1-1.4.1-2 .2-.2 0-.2-.1-.2-.2v-.8-.4c-.2.1-.1.3-.1.4v.6c0 .3-.1.3-.3.2 0 0-.1 0-.1-.1 0 .3 0 .3-.2.4.2.1.3 0 .4 0s.3 0 .3.2c.1.4.1.9.2 1.4-.2.4-.3.4-.5.4zm2.6 1.6c-.5.1-1.1 0-1.6-.1-.1 0-.2-.1-.2-.2-.3-.9-.4-1.8-.6-2.8 0-.2 0-.2.2-.2.4-.1 1-.1 1.3-.2h1c.2 0 .3.1.3.3 0 .9.1 1.8.2 2.6-.1.5-.1.5-.6.6zm1.6-2.4c0 .1 0 .1 0 0-.4.4-.9.4-1 .4-.2 0-.2 0-.2-.3 0-.4 0-.7-.1-1 0-.2 0-.2.2-.2.1 0 .5 0 .6-.1.1 0 .2 0 .2.1.1.3.2.5.2.8.1.1.1.2.1.3zm1.1.2h-.4s.4-.1.5-.2h-.8c-.2 0-.2 0-.2-.2 0-.3-.1-.6-.1-.9 0-.1 0-.2.1-.2.3-.1.5-.3.8-.4.2-.1.4.1.4.2.2.4.3.7.3 1.1-.1.4-.3.6-.6.6z"/></g><g><path class="st10" d="M661.9 261.7c-.4 2.3-2.3 4.1-4.7 4.1-1.3 0-2.5-.5-3.3-1.4l-.7.6c1.1 1.1 2.5 1.7 4 1.7 2.9 0 5.2-2.1 5.6-4.8-.3-.1-.6-.1-.9-.2zM657.2 256.3c1.1 0 2 .4 2.8.9l.5-.8c-1-.7-2.1-1.1-3.3-1.1-2.5 0-4.5 1.5-5.3 3.7l.9.4c.7-1.8 2.3-3.1 4.4-3.1zM652.4 261.1h-.9c0 .8.2 1.6.5 2.3l.9-.4c-.3-.6-.5-1.2-.5-1.9zM662 258.1l-.8.5c.4.5.6 1.2.7 1.9l.9-.1c-.1-.9-.4-1.7-.8-2.3z"/><g><path class="st10" d="M657.2 257.5v-.9c-1.9 0-3.6 1.2-4.2 3l.9.4c.4-1.6 1.8-2.5 3.3-2.5zM657.2 264.7v.9c2.3 0 4.2-1.7 4.5-4l-.9-.1c-.3 1.9-1.8 3.2-3.6 3.2zM660.8 260.6l.9-.1c-.2-1.7-1.3-3.1-2.8-3.7l-.4.9c1.2.5 2.1 1.5 2.3 2.9zM653.5 261.1h-.9c0 1.9 1.2 3.6 2.9 4.2l.4-.9c-1.4-.5-2.4-1.8-2.4-3.3z"/></g><g><path class="st10" d="M659.7 261.4c-.2 1.2-1.2 2.2-2.5 2.2-1.4 0-2.6-1.1-2.6-2.6 0-1.4 1.1-2.6 2.6-2.6 1.3 0 2.4 1 2.6 2.2l.9-.1c-.2-1.7-1.7-3-3.4-3-1.9 0-3.4 1.6-3.4 3.4 0 1.9 1.6 3.4 3.4 3.4 1.8 0 3.2-1.3 3.4-3l-1 .1z"/></g><g><path class="st10" d="M657.7 262.4l.4.9c.6-.3 1.1-.8 1.4-1.4l-.9-.4c-.2.5-.6.7-.9.9zM657.2 262.5c-.4 0-.7-.2-1-.4l-.6.6c.4.4 1 .7 1.7.7l-.1-.9zM658.6 260.9l.9-.1c-.1-.9-.7-1.6-1.5-1.8l-.4.9c.5 0 .9.5 1 1zM655.8 261.1c0-.8.6-1.4 1.4-1.4v-.9c-1.3 0-2.4 1.1-2.4 2.4 0 .4.1.7.2 1l.9-.4c-.1-.3-.1-.6-.1-.7z"/></g></g><g><path class="st10" d="M632.9 205.7c-2.9 0-5.3 2.4-5.3 5.3s2.4 5.3 5.3 5.3 5.3-2.4 5.3-5.3-2.4-5.3-5.3-5.3zm2.2 7.9c-.1 0-.2 0-.3-.1l-2.7-2.2-.9 2.3h-.8l2.3-5.5c.1-.2.2-.3.4-.3s.3.1.4.3l2.1 5v.2c-.2.1-.4.3-.5.3z"/><path class="st10" d="M632.3 210.6l2.1 1.7-1.4-3.4z"/></g></g></svg>